<svg xmlns="http://www.w3.org/2000/svg" xmlns:xlink="http://www.w3.org/1999/xlink" id="processonSvg1000" viewBox="111.0 197.0 904.0 645.0" width="904.0" height="645.0"><defs id="ProcessOnDefs1001"><linearGradient id="ProcessOnLinearGradient1007" x1="0.5" y1="0.0" x2="0.09942368213308476" y2="1.0"><stop id="ProcessOnStop1008" stop-opacity="1.0" stop-color="#d8ffff" offset="0.0"/><stop id="ProcessOnStop1009" stop-opacity="1.0" stop-color="#9cc3c3" offset="1.0"/></linearGradient><linearGradient id="ProcessOnLinearGradient1015" x1="0.5" y1="0.0" x2="0.09942368213308476" y2="1.0"><stop id="ProcessOnStop1016" stop-opacity="1.0" stop-color="#c9c9c9" offset="0.0"/><stop id="ProcessOnStop1017" stop-opacity="1.0" stop-color="#8d8d8d" offset="1.0"/></linearGradient><linearGradient id="ProcessOnLinearGradient1023" x1="0.5" y1="0.0" x2="0.09942368213308476" y2="1.0"><stop id="ProcessOnStop1024" stop-opacity="1.0" stop-color="#8ac4ff" offset="0.0"/><stop id="ProcessOnStop1025" stop-opacity="1.0" stop-color="#4e88c3" offset="1.0"/></linearGradient><linearGradient id="ProcessOnLinearGradient1031" x1="0.5" y1="0.0" x2="0.09942368213308479" y2="1.0"><stop id="ProcessOnStop1032" stop-opacity="1.0" stop-color="#ffecd8" offset="0.0"/><stop id="ProcessOnStop1033" stop-opacity="1.0" stop-color="#c3b09c" offset="1.0"/></linearGradient><linearGradient id="ProcessOnLinearGradient1039" x1="0.5" y1="0.0" x2="0.5" y2="1.0"><stop id="ProcessOnStop1040" stop-opacity="1.0" stop-color="#c9c9c9" offset="0.0"/><stop id="ProcessOnStop1041" stop-opacity="1.0" stop-color="#8d8d8d" offset="1.0"/></linearGradient><linearGradient id="ProcessOnLinearGradient1174" x1="0.5" y1="0.0" x2="0.0994236821330848" y2="1.0"><stop id="ProcessOnStop1175" stop-opacity="1.0" stop-color="#ffffff" offset="0.0"/><stop id="ProcessOnStop1176" stop-opacity="1.0" stop-color="#c3c3c3" offset="1.0"/></linearGradient><linearGradient id="ProcessOnLinearGradient1182" x1="0.5" y1="0.0" x2="0.09942368213308479" y2="1.0"><stop id="ProcessOnStop1183" stop-opacity="1.0" stop-color="#ffffff" offset="0.0"/><stop id="ProcessOnStop1184" stop-opacity="1.0" stop-color="#c3c3c3" offset="1.0"/></linearGradient><linearGradient id="ProcessOnLinearGradient1220" x1="0.5" y1="0.0" x2="0.5" y2="1.0"><stop id="ProcessOnStop1221" stop-opacity="1.0" stop-color="#d8ffff" offset="0.0"/><stop id="ProcessOnStop1222" stop-opacity="1.0" stop-color="#9cc3c3" offset="1.0"/></linearGradient></defs><g id="ProcessOnG1002"><path id="ProcessOnPath1003" d="M111.0 197.0H1015.0V842.0H111.0V197.0Z" fill="none"/><g id="ProcessOnG1004"><g id="ProcessOnG1005" transform="matrix(1.0,0.0,0.0,1.0,131.0,432.0)" opacity="1.0"><path id="ProcessOnPath1006" d="M0.0 0.0L716.0 0.0L716.0 390.0L0.0 390.0Z" stroke="#323232" stroke-width="2.0" stroke-dasharray="none" opacity="1.0" fill="url(#ProcessOnLinearGradient1007)"/><g id="ProcessOnG1010" transform="matrix(1.0,0.0,0.0,1.0,10.0,0.0)"><text id="ProcessOnText1011" fill="#000000" font-weight="bold" font-style="normal" text-decoration="blink" font-family="微软雅黑" text-anchor="middle" font-size="13" x="348.0" y="13.325"></text><text id="ProcessOnText1012" fill="#000000" font-weight="bold" font-style="normal" text-decoration="blink" font-family="微软雅黑" text-anchor="middle" font-size="13" x="348.0" y="29.575">CoreSDK</text></g></g><g id="ProcessOnG1013" transform="matrix(1.0,0.0,0.0,1.0,146.0,577.0)" opacity="1.0"><path id="ProcessOnPath1014" d="M0.0 0.0L509.0 0.0L509.0 228.0L0.0 228.0Z" stroke="#323232" stroke-width="2.0" stroke-dasharray="none" opacity="1.0" fill="url(#ProcessOnLinearGradient1015)"/><g id="ProcessOnG1018" transform="matrix(1.0,0.0,0.0,1.0,10.0,0.0)"><text id="ProcessOnText1019" fill="#000000" font-weight="bold" font-style="normal" text-decoration="blink" font-family="微软雅黑" text-anchor="middle" font-size="14" x="244.5" y="14.350000000000001"></text><text id="ProcessOnText1020" fill="#000000" font-weight="bold" font-style="normal" text-decoration="blink" font-family="微软雅黑" text-anchor="middle" font-size="14" x="244.5" y="31.85">CoreSDK - Djlink</text></g></g><g id="ProcessOnG1021" transform="matrix(1.0,0.0,0.0,1.0,146.0,474.0)" opacity="1.0"><path id="ProcessOnPath1022" d="M0.0 0.0L688.0 0.0L688.0 95.0L0.0 95.0Z" stroke="#323232" stroke-width="2.0" stroke-dasharray="none" opacity="1.0" fill="url(#ProcessOnLinearGradient1023)"/><g id="ProcessOnG1026" transform="matrix(1.0,0.0,0.0,1.0,10.0,0.0)"><text id="ProcessOnText1027" fill="#000000" font-weight="bold" font-style="normal" text-decoration="blink" font-family="微软雅黑" text-anchor="middle" font-size="13" x="334.0" y="13.325"></text><text id="ProcessOnText1028" fill="#000000" font-weight="bold" font-style="normal" text-decoration="blink" font-family="微软雅黑" text-anchor="middle" font-size="13" x="334.0" y="29.575">CoreSDK - Common</text></g></g><g id="ProcessOnG1029" transform="matrix(1.0,0.0,0.0,1.0,132.0,327.0)" opacity="1.0"><path id="ProcessOnPath1030" d="M0.0 0.0L863.0 0.0L863.0 94.0L0.0 94.0Z" stroke="#323232" stroke-width="2.0" stroke-dasharray="none" opacity="1.0" fill="url(#ProcessOnLinearGradient1031)"/><g id="ProcessOnG1034" transform="matrix(1.0,0.0,0.0,1.0,10.0,0.0)"><text id="ProcessOnText1035" fill="#000000" font-weight="bold" font-style="normal" text-decoration="blink" font-family="微软雅黑" text-anchor="middle" font-size="13" x="421.5" y="13.325"></text><text id="ProcessOnText1036" fill="#000000" font-weight="bold" font-style="normal" text-decoration="blink" font-family="微软雅黑" text-anchor="middle" font-size="13" x="421.5" y="29.575">IOTSDK</text></g></g><g id="ProcessOnG1037" transform="matrix(1.0,0.0,0.0,1.0,663.0,576.5)" opacity="1.0"><path id="ProcessOnPath1038" d="M0.0 0.0L171.0 0.0L171.0 229.0L0.0 229.0Z" stroke="#323232" stroke-width="2.0" stroke-dasharray="none" opacity="1.0" fill="url(#ProcessOnLinearGradient1039)"/><g id="ProcessOnG1042" transform="matrix(1.0,0.0,0.0,1.0,10.0,0.0)"><text id="ProcessOnText1043" fill="#000000" font-weight="bold" font-style="normal" text-decoration="blink" font-family="微软雅黑" text-anchor="middle" font-size="14" x="75.5" y="14.350000000000001"></text><text id="ProcessOnText1044" fill="#000000" font-weight="bold" font-style="normal" text-decoration="blink" font-family="微软雅黑" text-anchor="middle" font-size="14" x="75.5" y="31.85">CoreSDK - Haier</text></g></g><g id="ProcessOnG1045" transform="matrix(1.0,0.0,0.0,1.0,184.0,515.0)" opacity="1.0"><path id="ProcessOnPath1046" d="M0.0 4.0Q0.0 0.0 4.0 0.0L159.0 0.0Q163.0 0.0 163.0 4.0L163.0 37.0Q163.0 41.0 159.0 41.0L4.0 41.0Q0.0 41.0 0.0 37.0Z" stroke="#323232" stroke-width="2.0" stroke-dasharray="none" opacity="1.0" fill="#ffcccc"/><g id="ProcessOnG1047" transform="matrix(1.0,0.0,0.0,1.0,10.0,12.375)"><text id="ProcessOnText1048" fill="#000000" font-weight="bold" font-style="normal" text-decoration="blink" font-family="微软雅黑" text-anchor="middle" font-size="13" x="71.5" y="13.325">Core - CommonAPI</text></g></g><g id="ProcessOnG1049" transform="matrix(1.0,0.0,0.0,1.0,156.0,672.5)" opacity="1.0"><path id="ProcessOnPath1050" d="M0.0 4.0Q0.0 0.0 4.0 0.0L161.0 0.0Q165.0 0.0 165.0 4.0L165.0 107.5Q165.0 111.5 161.0 111.5L4.0 111.5Q0.0 111.5 0.0 107.5Z" stroke="#323232" stroke-width="2.0" stroke-dasharray="none" opacity="1.0" fill="#ffffff"/><g id="ProcessOnG1051" transform="matrix(1.0,0.0,0.0,1.0,10.0,0.0)"><text id="ProcessOnText1052" fill="#000000" font-weight="bold" font-style="normal" text-decoration="blink" font-family="微软雅黑" text-anchor="middle" font-size="13" x="72.5" y="13.325"></text><text id="ProcessOnText1053" fill="#000000" font-weight="bold" font-style="normal" text-decoration="blink" font-family="微软雅黑" text-anchor="middle" font-size="13" x="72.5" y="29.575">S  Protocol </text><text id="ProcessOnText1054" fill="#000000" font-weight="bold" font-style="normal" text-decoration="blink" font-family="微软雅黑" text-anchor="middle" font-size="13" x="72.5" y="45.825">Module</text></g></g><g id="ProcessOnG1055" transform="matrix(1.0,0.0,0.0,1.0,165.0,726.5)" opacity="1.0"><path id="ProcessOnPath1056" d="M0.0 4.0Q0.0 0.0 4.0 0.0L65.0 0.0Q69.0 0.0 69.0 4.0L69.0 42.0Q69.0 46.0 65.0 46.0L4.0 46.0Q0.0 46.0 0.0 42.0Z" stroke="#323232" stroke-width="2.0" stroke-dasharray="none" opacity="1.0" fill="#ffcc99"/><g id="ProcessOnG1057" transform="matrix(1.0,0.0,0.0,1.0,10.0,6.75)"><text id="ProcessOnText1058" fill="#000000" font-weight="bold" font-style="normal" text-decoration="blink" font-family="微软雅黑" text-anchor="middle" font-size="13" x="24.5" y="13.325">MQTT</text><text id="ProcessOnText1059" fill="#000000" font-weight="bold" font-style="normal" text-decoration="blink" font-family="微软雅黑" text-anchor="middle" font-size="13" x="24.5" y="29.575">Service</text></g></g><g id="ProcessOnG1060" transform="matrix(1.0,0.0,0.0,1.0,243.0,726.5)" opacity="1.0"><path id="ProcessOnPath1061" d="M0.0 4.0Q0.0 0.0 4.0 0.0L67.0 0.0Q71.0 0.0 71.0 4.0L71.0 42.0Q71.0 46.0 67.0 46.0L4.0 46.0Q0.0 46.0 0.0 42.0Z" stroke="#323232" stroke-width="2.0" stroke-dasharray="none" opacity="1.0" fill="#ffcc99"/><g id="ProcessOnG1062" transform="matrix(1.0,0.0,0.0,1.0,10.0,6.75)"><text id="ProcessOnText1063" fill="#000000" font-weight="bold" font-style="normal" text-decoration="blink" font-family="微软雅黑" text-anchor="middle" font-size="13" x="25.5" y="13.325">HTTP</text><text id="ProcessOnText1064" fill="#000000" font-weight="bold" font-style="normal" text-decoration="blink" font-family="微软雅黑" text-anchor="middle" font-size="13" x="25.5" y="29.575">Service</text></g></g><g id="ProcessOnG1065" transform="matrix(1.0,0.0,0.0,1.0,432.5,672.5)" opacity="1.0"><path id="ProcessOnPath1066" d="M0.0 4.0Q0.0 0.0 4.0 0.0L95.5 0.0Q99.5 0.0 99.5 4.0L99.5 107.5Q99.5 111.5 95.5 111.5L4.0 111.5Q0.0 111.5 0.0 107.5Z" stroke="#323232" stroke-width="2.0" stroke-dasharray="none" opacity="1.0" fill="#ffffff"/><g id="ProcessOnG1067" transform="matrix(1.0,0.0,0.0,1.0,10.0,0.0)"><text id="ProcessOnText1068" fill="#000000" font-weight="bold" font-style="normal" text-decoration="blink" font-family="微软雅黑" text-anchor="middle" font-size="13" x="39.75" y="13.325"></text><text id="ProcessOnText1069" fill="#000000" font-weight="bold" font-style="normal" text-decoration="blink" font-family="微软雅黑" text-anchor="middle" font-size="13" x="39.75" y="29.575">B  Protocol</text><text id="ProcessOnText1070" fill="#000000" font-weight="bold" font-style="normal" text-decoration="blink" font-family="微软雅黑" text-anchor="middle" font-size="13" x="39.75" y="45.825">Module</text></g></g><g id="ProcessOnG1071" transform="matrix(1.0,0.0,0.0,1.0,446.5,726.5)" opacity="1.0"><path id="ProcessOnPath1072" d="M0.0 4.0Q0.0 0.0 4.0 0.0L67.5 0.0Q71.5 0.0 71.5 4.0L71.5 42.0Q71.5 46.0 67.5 46.0L4.0 46.0Q0.0 46.0 0.0 42.0Z" stroke="#323232" stroke-width="2.0" stroke-dasharray="none" opacity="1.0" fill="#ffcc99"/><g id="ProcessOnG1073" transform="matrix(1.0,0.0,0.0,1.0,10.0,6.75)"><text id="ProcessOnText1074" fill="#000000" font-weight="bold" font-style="normal" text-decoration="blink" font-family="微软雅黑" text-anchor="middle" font-size="13" x="25.75" y="13.325">BLE</text><text id="ProcessOnText1075" fill="#000000" font-weight="bold" font-style="normal" text-decoration="blink" font-family="微软雅黑" text-anchor="middle" font-size="13" x="25.75" y="29.575">Service</text></g></g><g id="ProcessOnG1076" transform="matrix(1.0,0.0,0.0,1.0,330.5,672.5)" opacity="1.0"><path id="ProcessOnPath1077" d="M0.0 4.0Q0.0 0.0 4.0 0.0L91.0 0.0Q95.0 0.0 95.0 4.0L95.0 107.5Q95.0 111.5 91.0 111.5L4.0 111.5Q0.0 111.5 0.0 107.5Z" stroke="#323232" stroke-width="2.0" stroke-dasharray="none" opacity="1.0" fill="#ffffff"/><g id="ProcessOnG1078" transform="matrix(1.0,0.0,0.0,1.0,10.0,0.0)"><text id="ProcessOnText1079" fill="#000000" font-weight="bold" font-style="normal" text-decoration="blink" font-family="微软雅黑" text-anchor="middle" font-size="13" x="37.5" y="13.325"></text><text id="ProcessOnText1080" fill="#000000" font-weight="bold" font-style="normal" text-decoration="blink" font-family="微软雅黑" text-anchor="middle" font-size="13" x="37.5" y="29.575">L  Protocol</text><text id="ProcessOnText1081" fill="#000000" font-weight="bold" font-style="normal" text-decoration="blink" font-family="微软雅黑" text-anchor="middle" font-size="13" x="37.5" y="45.825">Module</text><text id="ProcessOnText1082" fill="#000000" font-weight="bold" font-style="normal" text-decoration="blink" font-family="微软雅黑" text-anchor="middle" font-size="13" x="37.5" y="62.075"></text></g></g><g id="ProcessOnG1083" transform="matrix(1.0,0.0,0.0,1.0,342.5,726.5)" opacity="1.0"><path id="ProcessOnPath1084" d="M0.0 4.0Q0.0 0.0 4.0 0.0L67.0 0.0Q71.0 0.0 71.0 4.0L71.0 42.0Q71.0 46.0 67.0 46.0L4.0 46.0Q0.0 46.0 0.0 42.0Z" stroke="#323232" stroke-width="2.0" stroke-dasharray="none" opacity="1.0" fill="#ffcc99"/><g id="ProcessOnG1085" transform="matrix(1.0,0.0,0.0,1.0,10.0,6.75)"><text id="ProcessOnText1086" fill="#000000" font-weight="bold" font-style="normal" text-decoration="blink" font-family="微软雅黑" text-anchor="middle" font-size="13" x="25.5" y="13.325">Socket</text><text id="ProcessOnText1087" fill="#000000" font-weight="bold" font-style="normal" text-decoration="blink" font-family="微软雅黑" text-anchor="middle" font-size="13" x="25.5" y="29.575">Service</text></g></g><g id="ProcessOnG1088" transform="matrix(1.0,0.0,0.0,1.0,366.5,515.0)" opacity="1.0"><path id="ProcessOnPath1089" d="M0.0 4.0Q0.0 0.0 4.0 0.0L155.5 0.0Q159.5 0.0 159.5 4.0L159.5 37.0Q159.5 41.0 155.5 41.0L4.0 41.0Q0.0 41.0 0.0 37.0Z" stroke="#323232" stroke-width="2.0" stroke-dasharray="none" opacity="1.0" fill="#ffcccc"/><g id="ProcessOnG1090" transform="matrix(1.0,0.0,0.0,1.0,10.0,12.375)"><text id="ProcessOnText1091" fill="#000000" font-weight="bold" font-style="normal" text-decoration="blink" font-family="微软雅黑" text-anchor="middle" font-size="13" x="69.75" y="13.325">Core - CommonDTO</text></g></g><g id="ProcessOnG1092" transform="matrix(1.0,0.0,0.0,1.0,549.0,515.0)" opacity="1.0"><path id="ProcessOnPath1093" d="M0.0 4.0Q0.0 0.0 4.0 0.0L110.0 0.0Q114.0 0.0 114.0 4.0L114.0 37.0Q114.0 41.0 110.0 41.0L4.0 41.0Q0.0 41.0 0.0 37.0Z" stroke="#323232" stroke-width="2.0" stroke-dasharray="none" opacity="1.0" fill="#ffcccc"/><g id="ProcessOnG1094" transform="matrix(1.0,0.0,0.0,1.0,10.0,12.375)"><text id="ProcessOnText1095" fill="#000000" font-weight="bold" font-style="normal" text-decoration="blink" font-family="微软雅黑" text-anchor="middle" font-size="13" x="47.0" y="13.325">Core - MQ</text></g></g><g id="ProcessOnG1096" transform="matrix(1.0,0.0,0.0,1.0,689.0,515.0)" opacity="1.0"><path id="ProcessOnPath1097" d="M0.0 4.0Q0.0 0.0 4.0 0.0L110.0 0.0Q114.0 0.0 114.0 4.0L114.0 37.0Q114.0 41.0 110.0 41.0L4.0 41.0Q0.0 41.0 0.0 37.0Z" stroke="#323232" stroke-width="2.0" stroke-dasharray="none" opacity="1.0" fill="#ffcccc"/><g id="ProcessOnG1098" transform="matrix(1.0,0.0,0.0,1.0,10.0,12.375)"><text id="ProcessOnText1099" fill="#000000" font-weight="bold" font-style="normal" text-decoration="blink" font-family="微软雅黑" text-anchor="middle" font-size="13" x="47.0" y="13.325">Core - Rx</text></g></g><g id="ProcessOnG1100" transform="matrix(1.0,0.0,0.0,1.0,156.0,367.0)" opacity="1.0"><path id="ProcessOnPath1101" d="M0.0 4.0Q0.0 0.0 4.0 0.0L78.0 0.0Q82.0 0.0 82.0 4.0L82.0 37.0Q82.0 41.0 78.0 41.0L4.0 41.0Q0.0 41.0 0.0 37.0Z" stroke="#323232" stroke-width="2.0" stroke-dasharray="none" opacity="1.0" fill="#ffff99"/><g id="ProcessOnG1102" transform="matrix(1.0,0.0,0.0,1.0,10.0,4.25)"><text id="ProcessOnText1103" fill="#000000" font-weight="bold" font-style="normal" text-decoration="blink" font-family="微软雅黑" text-anchor="middle" font-size="13" x="31.0" y="13.325">IOT</text><text id="ProcessOnText1104" fill="#000000" font-weight="bold" font-style="normal" text-decoration="blink" font-family="微软雅黑" text-anchor="middle" font-size="13" x="31.0" y="29.575">Service</text></g></g><g id="ProcessOnG1105" transform="matrix(1.0,0.0,0.0,1.0,256.5,367.0)" opacity="1.0"><path id="ProcessOnPath1106" d="M0.0 4.0Q0.0 0.0 4.0 0.0L95.0 0.0Q99.0 0.0 99.0 4.0L99.0 37.0Q99.0 41.0 95.0 41.0L4.0 41.0Q0.0 41.0 0.0 37.0Z" stroke="#323232" stroke-width="2.0" stroke-dasharray="none" opacity="1.0" fill="#ffff99"/><g id="ProcessOnG1107" transform="matrix(1.0,0.0,0.0,1.0,10.0,4.25)"><text id="ProcessOnText1108" fill="#000000" font-weight="bold" font-style="normal" text-decoration="blink" font-family="微软雅黑" text-anchor="middle" font-size="13" x="39.5" y="13.325">IOT</text><text id="ProcessOnText1109" fill="#000000" font-weight="bold" font-style="normal" text-decoration="blink" font-family="微软雅黑" text-anchor="middle" font-size="13" x="39.5" y="29.575">PublicAPI</text></g></g><g id="ProcessOnG1110" transform="matrix(1.0,0.0,0.0,1.0,674.5,621.5)" opacity="1.0"><path id="ProcessOnPath1111" d="M0.0 4.0Q0.0 0.0 4.0 0.0L139.0 0.0Q143.0 0.0 143.0 4.0L143.0 32.5Q143.0 36.5 139.0 36.5L4.0 36.5Q0.0 36.5 0.0 32.5Z" stroke="#323232" stroke-width="2.0" stroke-dasharray="none" opacity="1.0" fill="#ffffff"/><g id="ProcessOnG1112" transform="matrix(1.0,0.0,0.0,1.0,10.0,10.125)"><text id="ProcessOnText1113" fill="#000000" font-weight="bold" font-style="normal" text-decoration="blink" font-family="微软雅黑" text-anchor="middle" font-size="13" x="61.5" y="13.325">uSDK</text></g></g><g id="ProcessOnG1114" transform="matrix(1.0,0.0,0.0,1.0,674.5,669.5)" opacity="1.0"><path id="ProcessOnPath1115" d="M0.0 4.0Q0.0 0.0 4.0 0.0L139.0 0.0Q143.0 0.0 143.0 4.0L143.0 30.5Q143.0 34.5 139.0 34.5L4.0 34.5Q0.0 34.5 0.0 30.5Z" stroke="#323232" stroke-width="2.0" stroke-dasharray="none" opacity="1.0" fill="#ffffff"/><g id="ProcessOnG1116" transform="matrix(1.0,0.0,0.0,1.0,10.0,9.125)"><text id="ProcessOnText1117" fill="#000000" font-weight="bold" font-style="normal" text-decoration="blink" font-family="微软雅黑" text-anchor="middle" font-size="13" x="61.5" y="13.325">OpenAPI</text></g></g><g id="ProcessOnG1118" transform="matrix(1.0,0.0,0.0,1.0,159.0,627.0)" opacity="1.0"><path id="ProcessOnPath1119" d="M0.0 4.0Q0.0 0.0 4.0 0.0L147.0 0.0Q151.0 0.0 151.0 4.0L151.0 30.0Q151.0 34.0 147.0 34.0L4.0 34.0Q0.0 34.0 0.0 30.0Z" stroke="#323232" stroke-width="2.0" stroke-dasharray="none" opacity="1.0" fill="#ffffff"/><g id="ProcessOnG1120" transform="matrix(1.0,0.0,0.0,1.0,10.0,8.875)"><text id="ProcessOnText1121" fill="#000000" font-weight="bold" font-style="normal" text-decoration="blink" font-family="微软雅黑" text-anchor="middle" font-size="13" x="65.5" y="13.325">Dev Data Filter</text></g></g><g id="ProcessOnG1122" transform="matrix(1.0,0.0,0.0,1.0,321.0,627.0)" opacity="1.0"><path id="ProcessOnPath1123" d="M0.0 4.0Q0.0 0.0 4.0 0.0L141.0 0.0Q145.0 0.0 145.0 4.0L145.0 30.0Q145.0 34.0 141.0 34.0L4.0 34.0Q0.0 34.0 0.0 30.0Z" stroke="#323232" stroke-width="2.0" stroke-dasharray="none" opacity="1.0" fill="#ffffff"/><g id="ProcessOnG1124" transform="matrix(1.0,0.0,0.0,1.0,10.0,8.875)"><text id="ProcessOnText1125" fill="#000000" font-weight="bold" font-style="normal" text-decoration="blink" font-family="微软雅黑" text-anchor="middle" font-size="13" x="62.5" y="13.325">Dev Data Parser</text></g></g><g id="ProcessOnG1126" transform="matrix(1.0,0.0,0.0,1.0,478.0,627.0)" opacity="1.0"><path id="ProcessOnPath1127" d="M0.0 4.0Q0.0 0.0 4.0 0.0L144.0 0.0Q148.0 0.0 148.0 4.0L148.0 30.0Q148.0 34.0 144.0 34.0L4.0 34.0Q0.0 34.0 0.0 30.0Z" stroke="#323232" stroke-width="2.0" stroke-dasharray="none" opacity="1.0" fill="#ffffff"/><g id="ProcessOnG1128" transform="matrix(1.0,0.0,0.0,1.0,10.0,8.875)"><text id="ProcessOnText1129" fill="#000000" font-weight="bold" font-style="normal" text-decoration="blink" font-family="微软雅黑" text-anchor="middle" font-size="13" x="64.0" y="13.325">Protocol Helper</text></g></g><g id="ProcessOnG1130" transform="matrix(1.0,0.0,0.0,1.0,674.5,758.0)" opacity="1.0"><path id="ProcessOnPath1131" d="M0.0 4.0Q0.0 0.0 4.0 0.0L139.0 0.0Q143.0 0.0 143.0 4.0L143.0 31.0Q143.0 35.0 139.0 35.0L4.0 35.0Q0.0 35.0 0.0 31.0Z" stroke="#323232" stroke-width="2.0" stroke-dasharray="none" opacity="1.0" fill="#ffffff"/><g id="ProcessOnG1132" transform="matrix(1.0,0.0,0.0,1.0,10.0,9.375)"><text id="ProcessOnText1133" fill="#000000" font-weight="bold" font-style="normal" text-decoration="blink" font-family="微软雅黑" text-anchor="middle" font-size="13" x="61.5" y="13.325">Dev Data Parser</text></g></g><g id="ProcessOnG1134" transform="matrix(1.0,0.0,0.0,1.0,674.5,714.0)" opacity="1.0"><path id="ProcessOnPath1135" d="M0.0 4.0Q0.0 0.0 4.0 0.0L139.0 0.0Q143.0 0.0 143.0 4.0L143.0 31.0Q143.0 35.0 139.0 35.0L4.0 35.0Q0.0 35.0 0.0 31.0Z" stroke="#323232" stroke-width="2.0" stroke-dasharray="none" opacity="1.0" fill="#ffffff"/><g id="ProcessOnG1136" transform="matrix(1.0,0.0,0.0,1.0,10.0,9.375)"><text id="ProcessOnText1137" fill="#000000" font-weight="bold" font-style="normal" text-decoration="blink" font-family="微软雅黑" text-anchor="middle" font-size="13" x="61.5" y="13.325">Protocol Helper</text></g></g><g id="ProcessOnG1138" transform="matrix(1.0,0.0,0.0,1.0,616.0,367.0)" opacity="1.0"><path id="ProcessOnPath1139" d="M0.0 4.0Q0.0 0.0 4.0 0.0L101.0 0.0Q105.0 0.0 105.0 4.0L105.0 37.0Q105.0 41.0 101.0 41.0L4.0 41.0Q0.0 41.0 0.0 37.0Z" stroke="#323232" stroke-width="2.0" stroke-dasharray="none" opacity="1.0" fill="#ffff99"/><g id="ProcessOnG1140" transform="matrix(1.0,0.0,0.0,1.0,10.0,4.25)"><text id="ProcessOnText1141" fill="#000000" font-weight="bold" font-style="normal" text-decoration="blink" font-family="微软雅黑" text-anchor="middle" font-size="13" x="42.5" y="13.325">IOT</text><text id="ProcessOnText1142" fill="#000000" font-weight="bold" font-style="normal" text-decoration="blink" font-family="微软雅黑" text-anchor="middle" font-size="13" x="42.5" y="29.575">FakeDevice</text></g></g><g id="ProcessOnG1143" transform="matrix(1.0,0.0,0.0,1.0,375.5,367.0)" opacity="1.0"><path id="ProcessOnPath1144" d="M0.0 4.0Q0.0 0.0 4.0 0.0L102.5 0.0Q106.5 0.0 106.5 4.0L106.5 37.0Q106.5 41.0 102.5 41.0L4.0 41.0Q0.0 41.0 0.0 37.0Z" stroke="#323232" stroke-width="2.0" stroke-dasharray="none" opacity="1.0" fill="#ffff99"/><g id="ProcessOnG1145" transform="matrix(1.0,0.0,0.0,1.0,10.0,4.25)"><text id="ProcessOnText1146" fill="#000000" font-weight="bold" font-style="normal" text-decoration="blink" font-family="微软雅黑" text-anchor="middle" font-size="13" x="43.25" y="13.325">IOT</text><text id="ProcessOnText1147" fill="#000000" font-weight="bold" font-style="normal" text-decoration="blink" font-family="微软雅黑" text-anchor="middle" font-size="13" x="43.25" y="29.575">BasicLogic</text></g></g><g id="ProcessOnG1148" transform="matrix(1.0,0.0,0.0,1.0,500.0,367.0)" opacity="1.0"><path id="ProcessOnPath1149" d="M0.0 4.0Q0.0 0.0 4.0 0.0L88.5 0.0Q92.5 0.0 92.5 4.0L92.5 37.0Q92.5 41.0 88.5 41.0L4.0 41.0Q0.0 41.0 0.0 37.0Z" stroke="#323232" stroke-width="2.0" stroke-dasharray="none" opacity="1.0" fill="#ffff99"/><g id="ProcessOnG1150" transform="matrix(1.0,0.0,0.0,1.0,10.0,4.25)"><text id="ProcessOnText1151" fill="#000000" font-weight="bold" font-style="normal" text-decoration="blink" font-family="微软雅黑" text-anchor="middle" font-size="13" x="36.25" y="13.325">IOT</text><text id="ProcessOnText1152" fill="#000000" font-weight="bold" font-style="normal" text-decoration="blink" font-family="微软雅黑" text-anchor="middle" font-size="13" x="36.25" y="29.575">ExtLogic</text></g></g><g id="ProcessOnG1153" transform="matrix(1.0,0.0,0.0,1.0,540.875,672.5)" opacity="1.0"><path id="ProcessOnPath1154" d="M0.0 4.0Q0.0 0.0 4.0 0.0L99.0 0.0Q103.0 0.0 103.0 4.0L103.0 107.5Q103.0 111.5 99.0 111.5L4.0 111.5Q0.0 111.5 0.0 107.5Z" stroke="#323232" stroke-width="2.0" stroke-dasharray="none" opacity="1.0" fill="#ffffff"/><g id="ProcessOnG1155" transform="matrix(1.0,0.0,0.0,1.0,10.0,0.0)"><text id="ProcessOnText1156" fill="#000000" font-weight="bold" font-style="normal" text-decoration="blink" font-family="微软雅黑" text-anchor="middle" font-size="13" x="41.5" y="13.325"></text><text id="ProcessOnText1157" fill="#000000" font-weight="bold" font-style="normal" text-decoration="blink" font-family="微软雅黑" text-anchor="middle" font-size="13" x="41.5" y="29.575">Smartlink</text><text id="ProcessOnText1158" fill="#000000" font-weight="bold" font-style="normal" text-decoration="blink" font-family="微软雅黑" text-anchor="middle" font-size="13" x="41.5" y="45.825">Module</text></g></g><g id="ProcessOnG1159" transform="matrix(1.0,0.0,0.0,1.0,551.0,723.5)" opacity="1.0"><path id="ProcessOnPath1160" d="M0.0 4.0Q0.0 0.0 4.0 0.0L79.0 0.0Q83.0 0.0 83.0 4.0L83.0 17.5Q83.0 21.5 79.0 21.5L4.0 21.5Q0.0 21.5 0.0 17.5Z" stroke="#323232" stroke-width="2.0" stroke-dasharray="none" opacity="1.0" fill="#ffcc99"/><g id="ProcessOnG1161" transform="matrix(1.0,0.0,0.0,1.0,10.0,2.625)"><text id="ProcessOnText1162" fill="#000000" font-weight="bold" font-style="normal" text-decoration="blink" font-family="微软雅黑" text-anchor="middle" font-size="13" x="31.5" y="13.325">HF</text></g></g><g id="ProcessOnG1163" transform="matrix(1.0,0.0,0.0,1.0,550.75,753.0)" opacity="1.0"><path id="ProcessOnPath1164" d="M0.0 4.0Q0.0 0.0 4.0 0.0L79.25 0.0Q83.25 0.0 83.25 4.0L83.25 19.0Q83.25 23.0 79.25 23.0L4.0 23.0Q0.0 23.0 0.0 19.0Z" stroke="#323232" stroke-width="2.0" stroke-dasharray="none" opacity="1.0" fill="#ffcc99"/><g id="ProcessOnG1165" transform="matrix(1.0,0.0,0.0,1.0,10.0,3.375)"><text id="ProcessOnText1166" fill="#000000" font-weight="bold" font-style="normal" text-decoration="blink" font-family="微软雅黑" text-anchor="middle" font-size="13" x="31.625" y="13.325">Dj500</text></g></g><g id="ProcessOnG1167" transform="matrix(1.0,0.0,0.0,1.0,745.0,367.0)" opacity="1.0"><path id="ProcessOnPath1168" d="M0.0 4.0Q0.0 0.0 4.0 0.0L101.0 0.0Q105.0 0.0 105.0 4.0L105.0 37.0Q105.0 41.0 101.0 41.0L4.0 41.0Q0.0 41.0 0.0 37.0Z" stroke="#323232" stroke-width="2.0" stroke-dasharray="none" opacity="1.0" fill="#ffff99"/><g id="ProcessOnG1169" transform="matrix(1.0,0.0,0.0,1.0,10.0,4.25)"><text id="ProcessOnText1170" fill="#000000" font-weight="bold" font-style="normal" text-decoration="blink" font-family="微软雅黑" text-anchor="middle" font-size="13" x="42.5" y="13.325">IOT</text><text id="ProcessOnText1171" fill="#000000" font-weight="bold" font-style="normal" text-decoration="blink" font-family="微软雅黑" text-anchor="middle" font-size="13" x="42.5" y="29.575">DebugUtils</text></g></g><g id="ProcessOnG1172" transform="matrix(1.0,0.0,0.0,1.0,132.0,217.0)" opacity="1.0"><path id="ProcessOnPath1173" d="M0.0 0.0L408.875 0.0L408.875 100.0L0.0 100.0Z" stroke="#323232" stroke-width="2.0" stroke-dasharray="none" opacity="1.0" fill="url(#ProcessOnLinearGradient1174)"/><g id="ProcessOnG1177" transform="matrix(1.0,0.0,0.0,1.0,10.0,0.0)"><text id="ProcessOnText1178" fill="#000000" font-weight="bold" font-style="normal" text-decoration="blink" font-family="微软雅黑" text-anchor="middle" font-size="13" x="194.4375" y="13.325"></text><text id="ProcessOnText1179" fill="#000000" font-weight="bold" font-style="normal" text-decoration="blink" font-family="微软雅黑" text-anchor="middle" font-size="13" x="194.4375" y="29.575">Hybrid SDK（JS）</text></g></g><g id="ProcessOnG1180" transform="matrix(1.0,0.0,0.0,1.0,550.75,217.0)" opacity="1.0"><path id="ProcessOnPath1181" d="M0.0 0.0L441.0 0.0L441.0 100.0L0.0 100.0Z" stroke="#323232" stroke-width="2.0" stroke-dasharray="none" opacity="1.0" fill="url(#ProcessOnLinearGradient1182)"/><g id="ProcessOnG1185" transform="matrix(1.0,0.0,0.0,1.0,10.0,0.0)"><text id="ProcessOnText1186" fill="#000000" font-weight="bold" font-style="normal" text-decoration="blink" font-family="微软雅黑" text-anchor="middle" font-size="13" x="210.5" y="13.325"></text><text id="ProcessOnText1187" fill="#000000" font-weight="bold" font-style="normal" text-decoration="blink" font-family="微软雅黑" text-anchor="middle" font-size="13" x="210.5" y="29.575">BigData SDK</text></g></g><g id="ProcessOnG1188" transform="matrix(1.0,0.0,0.0,1.0,565.75,261.0)" opacity="1.0"><path id="ProcessOnPath1189" d="M0.0 4.0Q0.0 0.0 4.0 0.0L88.5 0.0Q92.5 0.0 92.5 4.0L92.5 37.0Q92.5 41.0 88.5 41.0L4.0 41.0Q0.0 41.0 0.0 37.0Z" stroke="#323232" stroke-width="2.0" stroke-dasharray="none" opacity="1.0" fill="#e6ffcc"/><g id="ProcessOnG1190" transform="matrix(1.0,0.0,0.0,1.0,10.0,4.25)"><text id="ProcessOnText1191" fill="#000000" font-weight="bold" font-style="normal" text-decoration="blink" font-family="微软雅黑" text-anchor="middle" font-size="13" x="36.25" y="13.325">User </text><text id="ProcessOnText1192" fill="#000000" font-weight="bold" font-style="normal" text-decoration="blink" font-family="微软雅黑" text-anchor="middle" font-size="13" x="36.25" y="29.575">Operation</text></g></g><g id="ProcessOnG1193" transform="matrix(1.0,0.0,0.0,1.0,670.75,261.0)" opacity="1.0"><path id="ProcessOnPath1194" d="M0.0 4.0Q0.0 0.0 4.0 0.0L88.5 0.0Q92.5 0.0 92.5 4.0L92.5 37.0Q92.5 41.0 88.5 41.0L4.0 41.0Q0.0 41.0 0.0 37.0Z" stroke="#323232" stroke-width="2.0" stroke-dasharray="none" opacity="1.0" fill="#e6ffcc"/><g id="ProcessOnG1195" transform="matrix(1.0,0.0,0.0,1.0,10.0,4.25)"><text id="ProcessOnText1196" fill="#000000" font-weight="bold" font-style="normal" text-decoration="blink" font-family="微软雅黑" text-anchor="middle" font-size="13" x="36.25" y="13.325">Device</text><text id="ProcessOnText1197" fill="#000000" font-weight="bold" font-style="normal" text-decoration="blink" font-family="微软雅黑" text-anchor="middle" font-size="13" x="36.25" y="29.575">Operation</text></g></g><g id="ProcessOnG1198" transform="matrix(1.0,0.0,0.0,1.0,153.5,266.0)" opacity="1.0"><path id="ProcessOnPath1199" d="M0.0 4.0Q0.0 0.0 4.0 0.0L102.5 0.0Q106.5 0.0 106.5 4.0L106.5 37.0Q106.5 41.0 102.5 41.0L4.0 41.0Q0.0 41.0 0.0 37.0Z" stroke="#323232" stroke-width="2.0" stroke-dasharray="none" opacity="1.0" fill="#ccffcc"/><g id="ProcessOnG1200" transform="matrix(1.0,0.0,0.0,1.0,10.0,4.25)"><text id="ProcessOnText1201" fill="#000000" font-weight="bold" font-style="normal" text-decoration="blink" font-family="微软雅黑" text-anchor="middle" font-size="13" x="43.25" y="13.325">IOTSDK</text><text id="ProcessOnText1202" fill="#000000" font-weight="bold" font-style="normal" text-decoration="blink" font-family="微软雅黑" text-anchor="middle" font-size="13" x="43.25" y="29.575">JSWrapper</text></g></g><g id="ProcessOnG1203" transform="matrix(1.0,0.0,0.0,1.0,776.75,261.0)" opacity="1.0"><path id="ProcessOnPath1204" d="M0.0 4.0Q0.0 0.0 4.0 0.0L88.5 0.0Q92.5 0.0 92.5 4.0L92.5 37.0Q92.5 41.0 88.5 41.0L4.0 41.0Q0.0 41.0 0.0 37.0Z" stroke="#323232" stroke-width="2.0" stroke-dasharray="none" opacity="1.0" fill="#e6ffcc"/><g id="ProcessOnG1205" transform="matrix(1.0,0.0,0.0,1.0,10.0,4.25)"><text id="ProcessOnText1206" fill="#000000" font-weight="bold" font-style="normal" text-decoration="blink" font-family="微软雅黑" text-anchor="middle" font-size="13" x="36.25" y="13.325">Error</text><text id="ProcessOnText1207" fill="#000000" font-weight="bold" font-style="normal" text-decoration="blink" font-family="微软雅黑" text-anchor="middle" font-size="13" x="36.25" y="29.575">Collection</text></g></g><g id="ProcessOnG1208" transform="matrix(1.0,0.0,0.0,1.0,283.90625,266.0)" opacity="1.0"><path id="ProcessOnPath1209" d="M0.0 4.0Q0.0 0.0 4.0 0.0L101.0625 0.0Q105.0625 0.0 105.0625 4.0L105.0625 37.0Q105.0625 41.0 101.0625 41.0L4.0 41.0Q0.0 41.0 0.0 37.0Z" stroke="#323232" stroke-width="2.0" stroke-dasharray="none" opacity="1.0" fill="#ccffcc"/><g id="ProcessOnG1210" transform="matrix(1.0,0.0,0.0,1.0,10.0,4.25)"><text id="ProcessOnText1211" fill="#000000" font-weight="bold" font-style="normal" text-decoration="blink" font-family="微软雅黑" text-anchor="middle" font-size="13" x="42.53125" y="13.325">WebNative</text><text id="ProcessOnText1212" fill="#000000" font-weight="bold" font-style="normal" text-decoration="blink" font-family="微软雅黑" text-anchor="middle" font-size="13" x="42.53125" y="29.575">UISync</text></g></g><g id="ProcessOnG1213" transform="matrix(1.0,0.0,0.0,1.0,882.75,261.0)" opacity="1.0"><path id="ProcessOnPath1214" d="M0.0 4.0Q0.0 0.0 4.0 0.0L88.5 0.0Q92.5 0.0 92.5 4.0L92.5 37.0Q92.5 41.0 88.5 41.0L4.0 41.0Q0.0 41.0 0.0 37.0Z" stroke="#323232" stroke-width="2.0" stroke-dasharray="none" opacity="1.0" fill="#e6ffcc"/><g id="ProcessOnG1215" transform="matrix(1.0,0.0,0.0,1.0,10.0,4.25)"><text id="ProcessOnText1216" fill="#000000" font-weight="bold" font-style="normal" text-decoration="blink" font-family="微软雅黑" text-anchor="middle" font-size="13" x="36.25" y="13.325">Other</text><text id="ProcessOnText1217" fill="#000000" font-weight="bold" font-style="normal" text-decoration="blink" font-family="微软雅黑" text-anchor="middle" font-size="13" x="36.25" y="29.575">Collection</text></g></g><g id="ProcessOnG1218" transform="matrix(1.0,0.0,0.0,1.0,856.5,432.0)" opacity="1.0"><path id="ProcessOnPath1219" d="M0.0 0.0L138.5 0.0L138.5 390.0L0.0 390.0Z" stroke="#323232" stroke-width="2.0" stroke-dasharray="none" opacity="1.0" fill="url(#ProcessOnLinearGradient1220)"/><g id="ProcessOnG1223" transform="matrix(1.0,0.0,0.0,1.0,10.0,0.0)"><text id="ProcessOnText1224" fill="#000000" font-weight="bold" font-style="normal" text-decoration="blink" font-family="微软雅黑" text-anchor="middle" font-size="14" x="59.25" y="14.350000000000001"></text><text id="ProcessOnText1225" fill="#000000" font-weight="bold" font-style="normal" text-decoration="blink" font-family="微软雅黑" text-anchor="middle" font-size="14" x="59.25" y="31.85">AbleSDK</text></g></g><g id="ProcessOnG1226" transform="matrix(1.0,0.0,0.0,1.0,873.0,367.0)" opacity="1.0"><path id="ProcessOnPath1227" d="M0.0 4.0Q0.0 0.0 4.0 0.0L88.5 0.0Q92.5 0.0 92.5 4.0L92.5 37.0Q92.5 41.0 88.5 41.0L4.0 41.0Q0.0 41.0 0.0 37.0Z" stroke="#323232" stroke-width="2.0" stroke-dasharray="none" opacity="1.0" fill="#ffff99"/><g id="ProcessOnG1228" transform="matrix(1.0,0.0,0.0,1.0,10.0,4.25)"><text id="ProcessOnText1229" fill="#000000" font-weight="bold" font-style="normal" text-decoration="blink" font-family="微软雅黑" text-anchor="middle" font-size="13" x="36.25" y="13.325">IOT</text><text id="ProcessOnText1230" fill="#000000" font-weight="bold" font-style="normal" text-decoration="blink" font-family="微软雅黑" text-anchor="middle" font-size="13" x="36.25" y="29.575">Log</text></g></g><g id="ProcessOnG1231" transform="matrix(1.0,0.0,0.0,1.0,877.0,656.0)" opacity="1.0"><path id="ProcessOnPath1232" d="M0.0 4.0Q0.0 0.0 4.0 0.0L93.5 0.0Q97.5 0.0 97.5 4.0L97.5 54.0Q97.5 58.0 93.5 58.0L4.0 58.0Q0.0 58.0 0.0 54.0Z" stroke="#323232" stroke-width="2.0" stroke-dasharray="none" opacity="1.0" fill="#ffffff"/><g id="ProcessOnG1233" transform="matrix(1.0,0.0,0.0,1.0,10.0,12.75)"><text id="ProcessOnText1234" fill="#000000" font-weight="bold" font-style="normal" text-decoration="blink" font-family="微软雅黑" text-anchor="middle" font-size="13" x="38.75" y="13.325">PM</text><text id="ProcessOnText1235" fill="#000000" font-weight="bold" font-style="normal" text-decoration="blink" font-family="微软雅黑" text-anchor="middle" font-size="13" x="38.75" y="29.575">API</text></g></g><g id="ProcessOnG1236" transform="matrix(1.0,0.0,0.0,1.0,877.0,735.0)" opacity="1.0"><path id="ProcessOnPath1237" d="M0.0 4.0Q0.0 0.0 4.0 0.0L93.5 0.0Q97.5 0.0 97.5 4.0L97.5 54.0Q97.5 58.0 93.5 58.0L4.0 58.0Q0.0 58.0 0.0 54.0Z" stroke="#323232" stroke-width="2.0" stroke-dasharray="none" opacity="1.0" fill="#ffffff"/><g id="ProcessOnG1238" transform="matrix(1.0,0.0,0.0,1.0,10.0,12.75)"><text id="ProcessOnText1239" fill="#000000" font-weight="bold" font-style="normal" text-decoration="blink" font-family="微软雅黑" text-anchor="middle" font-size="13" x="38.75" y="13.325">Weather</text><text id="ProcessOnText1240" fill="#000000" font-weight="bold" font-style="normal" text-decoration="blink" font-family="微软雅黑" text-anchor="middle" font-size="13" x="38.75" y="29.575">API</text></g></g><g id="ProcessOnG1241" transform="matrix(1.0,0.0,0.0,1.0,877.0,576.5)" opacity="1.0"><path id="ProcessOnPath1242" d="M0.0 4.0Q0.0 0.0 4.0 0.0L93.5 0.0Q97.5 0.0 97.5 4.0L97.5 54.0Q97.5 58.0 93.5 58.0L4.0 58.0Q0.0 58.0 0.0 54.0Z" stroke="#323232" stroke-width="2.0" stroke-dasharray="none" opacity="1.0" fill="#ffffff"/><g id="ProcessOnG1243" transform="matrix(1.0,0.0,0.0,1.0,10.0,12.75)"><text id="ProcessOnText1244" fill="#000000" font-weight="bold" font-style="normal" text-decoration="blink" font-family="微软雅黑" text-anchor="middle" font-size="13" x="38.75" y="13.325">File</text><text id="ProcessOnText1245" fill="#000000" font-weight="bold" font-style="normal" text-decoration="blink" font-family="微软雅黑" text-anchor="middle" font-size="13" x="38.75" y="29.575">API</text></g></g><g id="ProcessOnG1246" transform="matrix(1.0,0.0,0.0,1.0,877.0,498.0)" opacity="1.0"><path id="ProcessOnPath1247" d="M0.0 4.0Q0.0 0.0 4.0 0.0L93.5 0.0Q97.5 0.0 97.5 4.0L97.5 54.0Q97.5 58.0 93.5 58.0L4.0 58.0Q0.0 58.0 0.0 54.0Z" stroke="#323232" stroke-width="2.0" stroke-dasharray="none" opacity="1.0" fill="#ffffff"/><g id="ProcessOnG1248" transform="matrix(1.0,0.0,0.0,1.0,10.0,12.75)"><text id="ProcessOnText1249" fill="#000000" font-weight="bold" font-style="normal" text-decoration="blink" font-family="微软雅黑" text-anchor="middle" font-size="13" x="38.75" y="13.325">ProvCity</text><text id="ProcessOnText1250" fill="#000000" font-weight="bold" font-style="normal" text-decoration="blink" font-family="微软雅黑" text-anchor="middle" font-size="13" x="38.75" y="29.575">API</text></g></g><g id="ProcessOnG1251" transform="matrix(1.0,0.0,0.0,1.0,408.0,266.0)" opacity="1.0"><path id="ProcessOnPath1252" d="M0.0 4.0Q0.0 0.0 4.0 0.0L106.0 0.0Q110.0 0.0 110.0 4.0L110.0 37.0Q110.0 41.0 106.0 41.0L4.0 41.0Q0.0 41.0 0.0 37.0Z" stroke="#323232" stroke-width="2.0" stroke-dasharray="none" opacity="1.0" fill="#ccffcc"/><g id="ProcessOnG1253" transform="matrix(1.0,0.0,0.0,1.0,10.0,4.25)"><text id="ProcessOnText1254" fill="#000000" font-weight="bold" font-style="normal" text-decoration="blink" font-family="微软雅黑" text-anchor="middle" font-size="13" x="45.0" y="13.325">Native</text><text id="ProcessOnText1255" fill="#000000" font-weight="bold" font-style="normal" text-decoration="blink" font-family="微软雅黑" text-anchor="middle" font-size="13" x="45.0" y="29.575">Capacity</text></g></g></g></g></svg>