<svg xmlns="http://www.w3.org/2000/svg" xmlns:xlink="http://www.w3.org/1999/xlink" id="processonSvg1000" viewBox="239.5 111.5 841.5 476.5" width="841.5" height="476.5"><defs id="ProcessOnDefs1001"><marker id="ProcessOnMarker1051" markerUnits="userSpaceOnUse" orient="auto" markerWidth="16.23606797749979" markerHeight="10.550836550532098" viewBox="-1.0 -1.3763819204711736 16.23606797749979 10.550836550532098" refX="-1.0" refY="3.8990363547948754"><path id="ProcessOnPath1052" d="M12.0 3.8990363547948754L0.0 7.798072709589751V0.0Z" stroke="#323232" stroke-width="2.0" fill="#323232" transform="matrix(1.0,0.0,0.0,1.0,0.0,0.0)"/></marker><marker id="ProcessOnMarker1055" markerUnits="userSpaceOnUse" orient="auto" markerWidth="16.23606797749979" markerHeight="10.550836550532098" viewBox="-1.0 -1.3763819204711736 16.23606797749979 10.550836550532098" refX="-1.0" refY="3.8990363547948754"><path id="ProcessOnPath1056" d="M12.0 3.8990363547948754L0.0 7.798072709589751V0.0Z" stroke="#323232" stroke-width="2.0" fill="#323232" transform="matrix(1.0,0.0,0.0,1.0,0.0,0.0)"/></marker><marker id="ProcessOnMarker1059" markerUnits="userSpaceOnUse" orient="auto" markerWidth="16.23606797749979" markerHeight="10.550836550532098" viewBox="-1.0 -1.3763819204711736 16.23606797749979 10.550836550532098" refX="-1.0" refY="3.8990363547948754"><path id="ProcessOnPath1060" d="M12.0 3.8990363547948754L0.0 7.798072709589751V0.0Z" stroke="#323232" stroke-width="2.0" fill="#323232" transform="matrix(1.0,0.0,0.0,1.0,0.0,0.0)"/></marker><marker id="ProcessOnMarker1063" markerUnits="userSpaceOnUse" orient="auto" markerWidth="16.23606797749979" markerHeight="10.550836550532098" viewBox="-1.0 -1.3763819204711736 16.23606797749979 10.550836550532098" refX="-1.0" refY="3.8990363547948754"><path id="ProcessOnPath1064" d="M12.0 3.8990363547948754L0.0 7.798072709589751V0.0Z" stroke="#323232" stroke-width="2.0" fill="#323232" transform="matrix(1.0,0.0,0.0,1.0,0.0,0.0)"/></marker><marker id="ProcessOnMarker1071" markerUnits="userSpaceOnUse" orient="auto" markerWidth="16.23606797749979" markerHeight="10.550836550532098" viewBox="-1.0 -1.3763819204711736 16.23606797749979 10.550836550532098" refX="-1.0" refY="3.8990363547948754"><path id="ProcessOnPath1072" d="M12.0 3.8990363547948754L0.0 7.798072709589751V0.0Z" stroke="#323232" stroke-width="2.0" fill="#323232" transform="matrix(1.0,0.0,0.0,1.0,0.0,0.0)"/></marker><marker id="ProcessOnMarker1075" markerUnits="userSpaceOnUse" orient="auto" markerWidth="16.23606797749979" markerHeight="10.550836550532098" viewBox="-1.0 -1.3763819204711736 16.23606797749979 10.550836550532098" refX="-1.0" refY="3.8990363547948754"><path id="ProcessOnPath1076" d="M12.0 3.8990363547948754L0.0 7.798072709589751V0.0Z" stroke="#323232" stroke-width="2.0" fill="#323232" transform="matrix(1.0,0.0,0.0,1.0,0.0,0.0)"/></marker><marker id="ProcessOnMarker1079" markerUnits="userSpaceOnUse" orient="auto" markerWidth="16.23606797749979" markerHeight="10.550836550532098" viewBox="-1.0 -1.3763819204711736 16.23606797749979 10.550836550532098" refX="-1.0" refY="3.8990363547948754"><path id="ProcessOnPath1080" d="M12.0 3.8990363547948754L0.0 7.798072709589751V0.0Z" stroke="#323232" stroke-width="2.0" fill="#323232" transform="matrix(1.0,0.0,0.0,1.0,0.0,0.0)"/></marker><marker id="ProcessOnMarker1083" markerUnits="userSpaceOnUse" orient="auto" markerWidth="16.23606797749979" markerHeight="10.550836550532098" viewBox="-1.0 -1.3763819204711736 16.23606797749979 10.550836550532098" refX="-1.0" refY="3.8990363547948754"><path id="ProcessOnPath1084" d="M12.0 3.8990363547948754L0.0 7.798072709589751V0.0Z" stroke="#323232" stroke-width="2.0" fill="#323232" transform="matrix(1.0,0.0,0.0,1.0,0.0,0.0)"/></marker><marker id="ProcessOnMarker1087" markerUnits="userSpaceOnUse" orient="auto" markerWidth="16.23606797749979" markerHeight="10.550836550532098" viewBox="-1.0 -1.3763819204711736 16.23606797749979 10.550836550532098" refX="-1.0" refY="3.8990363547948754"><path id="ProcessOnPath1088" d="M12.0 3.8990363547948754L0.0 7.798072709589751V0.0Z" stroke="#323232" stroke-width="2.0" fill="#323232" transform="matrix(1.0,0.0,0.0,1.0,0.0,0.0)"/></marker><marker id="ProcessOnMarker1091" markerUnits="userSpaceOnUse" orient="auto" markerWidth="16.23606797749979" markerHeight="10.550836550532098" viewBox="-1.0 -1.3763819204711736 16.23606797749979 10.550836550532098" refX="-1.0" refY="3.8990363547948754"><path id="ProcessOnPath1092" d="M12.0 3.8990363547948754L0.0 7.798072709589751V0.0Z" stroke="#323232" stroke-width="2.0" fill="#323232" transform="matrix(1.0,0.0,0.0,1.0,0.0,0.0)"/></marker><marker id="ProcessOnMarker1111" markerUnits="userSpaceOnUse" orient="auto" markerWidth="16.23606797749979" markerHeight="10.550836550532098" viewBox="-1.0 -1.3763819204711736 16.23606797749979 10.550836550532098" refX="-1.0" refY="3.8990363547948754"><path id="ProcessOnPath1112" d="M12.0 3.8990363547948754L0.0 7.798072709589751V0.0Z" stroke="#323232" stroke-width="2.0" fill="#323232" transform="matrix(1.0,0.0,0.0,1.0,0.0,0.0)"/></marker><marker id="ProcessOnMarker1119" markerUnits="userSpaceOnUse" orient="auto" markerWidth="16.23606797749979" markerHeight="10.550836550532098" viewBox="-1.0 -1.3763819204711736 16.23606797749979 10.550836550532098" refX="-1.0" refY="3.8990363547948754"><path id="ProcessOnPath1120" d="M12.0 3.8990363547948754L0.0 7.798072709589751V0.0Z" stroke="#323232" stroke-width="2.0" fill="#323232" transform="matrix(1.0,0.0,0.0,1.0,0.0,0.0)"/></marker><marker id="ProcessOnMarker1123" markerUnits="userSpaceOnUse" orient="auto" markerWidth="16.23606797749979" markerHeight="10.550836550532098" viewBox="-1.0 -1.3763819204711736 16.23606797749979 10.550836550532098" refX="-1.0" refY="3.8990363547948754"><path id="ProcessOnPath1124" d="M12.0 3.8990363547948754L0.0 7.798072709589751V0.0Z" stroke="#323232" stroke-width="2.0" fill="#323232" transform="matrix(1.0,0.0,0.0,1.0,0.0,0.0)"/></marker><marker id="ProcessOnMarker1127" markerUnits="userSpaceOnUse" orient="auto" markerWidth="16.23606797749979" markerHeight="10.550836550532098" viewBox="-1.0 -1.3763819204711736 16.23606797749979 10.550836550532098" refX="-1.0" refY="3.8990363547948754"><path id="ProcessOnPath1128" d="M12.0 3.8990363547948754L0.0 7.798072709589751V0.0Z" stroke="#323232" stroke-width="2.0" fill="#323232" transform="matrix(1.0,0.0,0.0,1.0,0.0,0.0)"/></marker><marker id="ProcessOnMarker1131" markerUnits="userSpaceOnUse" orient="auto" markerWidth="16.23606797749979" markerHeight="10.550836550532098" viewBox="-1.0 -1.3763819204711736 16.23606797749979 10.550836550532098" refX="-1.0" refY="3.8990363547948754"><path id="ProcessOnPath1132" d="M12.0 3.8990363547948754L0.0 7.798072709589751V0.0Z" stroke="#323232" stroke-width="2.0" fill="#323232" transform="matrix(1.0,0.0,0.0,1.0,0.0,0.0)"/></marker><marker id="ProcessOnMarker1139" markerUnits="userSpaceOnUse" orient="auto" markerWidth="16.23606797749979" markerHeight="10.550836550532098" viewBox="-1.0 -1.3763819204711736 16.23606797749979 10.550836550532098" refX="-1.0" refY="3.8990363547948754"><path id="ProcessOnPath1140" d="M12.0 3.8990363547948754L0.0 7.798072709589751V0.0Z" stroke="#323232" stroke-width="2.0" fill="#323232" transform="matrix(1.0,0.0,0.0,1.0,0.0,0.0)"/></marker><marker id="ProcessOnMarker1143" markerUnits="userSpaceOnUse" orient="auto" markerWidth="16.23606797749979" markerHeight="10.550836550532098" viewBox="-1.0 -1.3763819204711736 16.23606797749979 10.550836550532098" refX="-1.0" refY="3.8990363547948754"><path id="ProcessOnPath1144" d="M12.0 3.8990363547948754L0.0 7.798072709589751V0.0Z" stroke="#323232" stroke-width="2.0" fill="#323232" transform="matrix(1.0,0.0,0.0,1.0,0.0,0.0)"/></marker><marker id="ProcessOnMarker1147" markerUnits="userSpaceOnUse" orient="auto" markerWidth="16.23606797749979" markerHeight="10.550836550532098" viewBox="-1.0 -1.3763819204711736 16.23606797749979 10.550836550532098" refX="-1.0" refY="3.8990363547948754"><path id="ProcessOnPath1148" d="M12.0 3.8990363547948754L0.0 7.798072709589751V0.0Z" stroke="#323232" stroke-width="2.0" fill="#323232" transform="matrix(1.0,0.0,0.0,1.0,0.0,0.0)"/></marker></defs><g id="ProcessOnG1002"><path id="ProcessOnPath1003" d="M239.5 111.5H1081.0V588.0H239.5V111.5Z" fill="#ffffff"/><g id="ProcessOnG1004"><g id="ProcessOnG1005" transform="matrix(1.0,0.0,0.0,1.0,404.25,374.0)" opacity="1.0"><path id="ProcessOnPath1006" d="M0.0 4.0Q0.0 0.0 4.0 0.0L113.0 0.0Q117.0 0.0 117.0 4.0L117.0 47.0Q117.0 51.0 113.0 51.0L4.0 51.0Q0.0 51.0 0.0 47.0Z" stroke="#323232" stroke-width="2.0" stroke-dasharray="none" opacity="1.0" fill="#ffb366"/><g id="ProcessOnG1007" transform="matrix(1.0,0.0,0.0,1.0,10.0,17.375)"><text id="ProcessOnText1008" fill="#323232" font-weight="normal" font-style="normal" text-decoration="blink" font-family="Arial,宋体" text-anchor="middle" font-size="13" x="48.5" y="13.325">B-Protocol</text></g></g><g id="ProcessOnG1009" transform="matrix(1.0,0.0,0.0,1.0,543.0,374.0)" opacity="1.0"><path id="ProcessOnPath1010" d="M0.0 4.0Q0.0 0.0 4.0 0.0L111.0 0.0Q115.0 0.0 115.0 4.0L115.0 47.0Q115.0 51.0 111.0 51.0L4.0 51.0Q0.0 51.0 0.0 47.0Z" stroke="#323232" stroke-width="2.0" stroke-dasharray="none" opacity="1.0" fill="#ffb366"/><g id="ProcessOnG1011" transform="matrix(1.0,0.0,0.0,1.0,10.0,17.375)"><text id="ProcessOnText1012" fill="#323232" font-weight="normal" font-style="normal" text-decoration="blink" font-family="Arial,宋体" text-anchor="middle" font-size="13" x="47.5" y="13.325">S-Protocol</text></g></g><g id="ProcessOnG1013" transform="matrix(1.0,0.0,0.0,1.0,645.4375,131.5)" opacity="1.0"><path id="ProcessOnPath1014" d="M0.0 4.0Q0.0 0.0 4.0 0.0L173.375 0.0Q177.375 0.0 177.375 4.0L177.375 42.5Q177.375 46.5 173.375 46.5L4.0 46.5Q0.0 46.5 0.0 42.5Z" stroke="#323232" stroke-width="2.0" stroke-dasharray="none" opacity="1.0" fill="#e6ffcc"/><g id="ProcessOnG1015" transform="matrix(1.0,0.0,0.0,1.0,10.0,15.125)"><text id="ProcessOnText1016" fill="#000000" font-weight="normal" font-style="normal" text-decoration="blink" font-family="Arial,宋体" text-anchor="middle" font-size="13" x="78.6875" y="13.325">IOTSDK</text></g></g><g id="ProcessOnG1017" transform="matrix(1.0,0.0,0.0,1.0,264.0,374.0)" opacity="1.0"><path id="ProcessOnPath1018" d="M0.0 4.0Q0.0 0.0 4.0 0.0L106.0 0.0Q110.0 0.0 110.0 4.0L110.0 47.0Q110.0 51.0 106.0 51.0L4.0 51.0Q0.0 51.0 0.0 47.0Z" stroke="#323232" stroke-width="2.0" stroke-dasharray="none" opacity="1.0" fill="#ffb366"/><g id="ProcessOnG1019" transform="matrix(1.0,0.0,0.0,1.0,10.0,17.375)"><text id="ProcessOnText1020" fill="#323232" font-weight="normal" font-style="normal" text-decoration="blink" font-family="Arial,宋体" text-anchor="middle" font-size="13" x="45.0" y="13.325">Smartlink</text></g></g><g id="ProcessOnG1021" transform="matrix(1.0,0.0,0.0,1.0,289.5,473.0)" opacity="1.0"><path id="ProcessOnPath1022" d="M0.0 4.0Q0.0 0.0 4.0 0.0L103.0 0.0Q107.0 0.0 107.0 4.0L107.0 34.0Q107.0 38.0 103.0 38.0L4.0 38.0Q0.0 38.0 0.0 34.0Z" stroke="#323232" stroke-width="2.0" stroke-dasharray="none" opacity="1.0" fill="#ffff99"/><g id="ProcessOnG1023" transform="matrix(1.0,0.0,0.0,1.0,10.0,10.875)"><text id="ProcessOnText1024" fill="#323232" font-weight="normal" font-style="normal" text-decoration="blink" font-family="Arial,宋体" text-anchor="middle" font-size="13" x="43.5" y="13.325">HF_Smartlink</text></g></g><g id="ProcessOnG1025" transform="matrix(1.0,0.0,0.0,1.0,376.0,278.0)" opacity="1.0"><path id="ProcessOnPath1026" d="M0.0 4.0Q0.0 0.0 4.0 0.0L169.5 0.0Q173.5 0.0 173.5 4.0L173.5 41.0Q173.5 45.0 169.5 45.0L4.0 45.0Q0.0 45.0 0.0 41.0Z" stroke="#323232" stroke-width="2.0" stroke-dasharray="none" opacity="1.0" fill="#ff99cc"/><g id="ProcessOnG1027" transform="matrix(1.0,0.0,0.0,1.0,10.0,14.375)"><text id="ProcessOnText1028" fill="#323232" font-weight="normal" font-style="normal" text-decoration="blink" font-family="Arial,宋体" text-anchor="middle" font-size="13" x="76.75" y="13.325">CoreSDK-Djlink</text></g></g><g id="ProcessOnG1029" transform="matrix(1.0,0.0,0.0,1.0,683.0,374.0)" opacity="1.0"><path id="ProcessOnPath1030" d="M0.0 4.0Q0.0 0.0 4.0 0.0L111.0 0.0Q115.0 0.0 115.0 4.0L115.0 47.0Q115.0 51.0 111.0 51.0L4.0 51.0Q0.0 51.0 0.0 47.0Z" stroke="#323232" stroke-width="2.0" stroke-dasharray="none" opacity="1.0" fill="#ffb366"/><g id="ProcessOnG1031" transform="matrix(1.0,0.0,0.0,1.0,10.0,17.375)"><text id="ProcessOnText1032" fill="#323232" font-weight="normal" font-style="normal" text-decoration="blink" font-family="Arial,宋体" text-anchor="middle" font-size="13" x="47.5" y="13.325">L-Protocol</text></g></g><g id="ProcessOnG1033" transform="matrix(1.0,0.0,0.0,1.0,568.375,524.25)" opacity="1.0"><path id="ProcessOnPath1034" d="M0.0 4.0Q0.0 0.0 4.0 0.0L89.25 0.0Q93.25 0.0 93.25 4.0L93.25 35.75Q93.25 39.75 89.25 39.75L4.0 39.75Q0.0 39.75 0.0 35.75Z" stroke="#323232" stroke-width="2.0" stroke-dasharray="none" opacity="1.0" fill="#ffff99"/><g id="ProcessOnG1035" transform="matrix(1.0,0.0,0.0,1.0,10.0,11.75)"><text id="ProcessOnText1036" fill="#323232" font-weight="normal" font-style="normal" text-decoration="blink" font-family="Arial,宋体" text-anchor="middle" font-size="13" x="36.625" y="13.325">Retrofit</text></g></g><g id="ProcessOnG1037" transform="matrix(1.0,0.0,0.0,1.0,407.5,475.5)" opacity="1.0"><path id="ProcessOnPath1038" d="M0.0 4.0Q0.0 0.0 4.0 0.0L106.5 0.0Q110.5 0.0 110.5 4.0L110.5 32.0Q110.5 36.0 106.5 36.0L4.0 36.0Q0.0 36.0 0.0 32.0Z" stroke="#323232" stroke-width="2.0" stroke-dasharray="none" opacity="1.0" fill="#ffff99"/><g id="ProcessOnG1039" transform="matrix(1.0,0.0,0.0,1.0,10.0,9.875)"><text id="ProcessOnText1040" fill="#323232" font-weight="normal" font-style="normal" text-decoration="blink" font-family="Arial,宋体" text-anchor="middle" font-size="13" x="45.25" y="13.325">RxAndroidBle</text></g></g><g id="ProcessOnG1041" transform="matrix(1.0,0.0,0.0,1.0,700.75,470.0)" opacity="1.0"><path id="ProcessOnPath1042" d="M0.0 4.0Q0.0 0.0 4.0 0.0L75.5 0.0Q79.5 0.0 79.5 4.0L79.5 37.0Q79.5 41.0 75.5 41.0L4.0 41.0Q0.0 41.0 0.0 37.0Z" stroke="#323232" stroke-width="2.0" stroke-dasharray="none" opacity="1.0" fill="#ffff99"/><g id="ProcessOnG1043" transform="matrix(1.0,0.0,0.0,1.0,10.0,12.375)"><text id="ProcessOnText1044" fill="#323232" font-weight="normal" font-style="normal" text-decoration="blink" font-family="Arial,宋体" text-anchor="middle" font-size="13" x="29.75" y="13.325">RxNetty</text></g></g><g id="ProcessOnG1045" transform="matrix(1.0,0.0,0.0,1.0,568.375,471.0)" opacity="1.0"><path id="ProcessOnPath1046" d="M0.0 4.0Q0.0 0.0 4.0 0.0L89.25 0.0Q93.25 0.0 93.25 4.0L93.25 36.0Q93.25 40.0 89.25 40.0L4.0 40.0Q0.0 40.0 0.0 36.0Z" stroke="#323232" stroke-width="2.0" stroke-dasharray="none" opacity="1.0" fill="#ffff99"/><g id="ProcessOnG1047" transform="matrix(1.0,0.0,0.0,1.0,10.0,11.875)"><text id="ProcessOnText1048" fill="#323232" font-weight="normal" font-style="normal" text-decoration="blink" font-family="Arial,宋体" text-anchor="middle" font-size="13" x="36.625" y="13.325">RxMqtt</text></g></g><g id="ProcessOnG1049"><path id="ProcessOnPath1050" d="M600.5 425.0L600.5 455.0L538.375 455.0L538.375 544.125L553.1389320225002 544.125" stroke="#323232" stroke-width="2.0" stroke-dasharray="none" fill="none" marker-end="url(#ProcessOnMarker1051)"/></g><g id="ProcessOnG1053"><path id="ProcessOnPath1054" d="M600.5 425.0L600.5 455.0L538.375 455.0L538.375 491.0L553.1389320225002 491.0" stroke="#323232" stroke-width="2.0" stroke-dasharray="none" fill="none" marker-end="url(#ProcessOnMarker1055)"/></g><g id="ProcessOnG1057"><path id="ProcessOnPath1058" d="M740.5 425.0L740.5 447.5L740.5 447.5L740.5 454.7639320225002" stroke="#323232" stroke-width="2.0" stroke-dasharray="none" fill="none" marker-end="url(#ProcessOnMarker1059)"/></g><g id="ProcessOnG1061"><path id="ProcessOnPath1062" d="M462.75 425.0L462.75 450.25L462.75 450.25L462.75 460.2639320225002" stroke="#323232" stroke-width="2.0" stroke-dasharray="none" fill="none" marker-end="url(#ProcessOnMarker1063)"/></g><g id="ProcessOnG1065" transform="matrix(1.0,0.0,0.0,1.0,289.5,530.0)" opacity="1.0"><path id="ProcessOnPath1066" d="M0.0 4.0Q0.0 0.0 4.0 0.0L132.5 0.0Q136.5 0.0 136.5 4.0L136.5 34.0Q136.5 38.0 132.5 38.0L4.0 38.0Q0.0 38.0 0.0 34.0Z" stroke="#323232" stroke-width="2.0" stroke-dasharray="none" opacity="1.0" fill="#ffff99"/><g id="ProcessOnG1067" transform="matrix(1.0,0.0,0.0,1.0,10.0,10.875)"><text id="ProcessOnText1068" fill="#323232" font-weight="normal" font-style="normal" text-decoration="blink" font-family="Arial,宋体" text-anchor="middle" font-size="13" x="58.25" y="13.325">ESP_SmartConfig</text></g></g><g id="ProcessOnG1069"><path id="ProcessOnPath1070" d="M319.0 425.0L319.0 455.0L259.5 455.0L259.5 549.0L274.2639320225002 549.0" stroke="#323232" stroke-width="2.0" stroke-dasharray="none" fill="none" marker-end="url(#ProcessOnMarker1071)"/></g><g id="ProcessOnG1073"><path id="ProcessOnPath1074" d="M319.0 425.0L319.0 455.0L259.5 455.0L259.5 492.0L274.2639320225002 492.0" stroke="#323232" stroke-width="2.0" stroke-dasharray="none" fill="none" marker-end="url(#ProcessOnMarker1075)"/></g><g id="ProcessOnG1077"><path id="ProcessOnPath1078" d="M462.75 323.0L462.75 348.5L600.5 348.5L600.5 358.7639320225002" stroke="#323232" stroke-width="2.0" stroke-dasharray="none" fill="none" marker-end="url(#ProcessOnMarker1079)"/></g><g id="ProcessOnG1081"><path id="ProcessOnPath1082" d="M462.75 323.0L462.75 348.5L740.5 348.5L740.5 358.7639320225002" stroke="#323232" stroke-width="2.0" stroke-dasharray="none" fill="none" marker-end="url(#ProcessOnMarker1083)"/></g><g id="ProcessOnG1085"><path id="ProcessOnPath1086" d="M462.75 323.0L462.75 348.5L462.75 348.5L462.75 358.7639320225002" stroke="#323232" stroke-width="2.0" stroke-dasharray="none" fill="none" marker-end="url(#ProcessOnMarker1087)"/></g><g id="ProcessOnG1089"><path id="ProcessOnPath1090" d="M462.75 323.0L462.75 348.5L319.0 348.5L319.0 358.7639320225002" stroke="#323232" stroke-width="2.0" stroke-dasharray="none" fill="none" marker-end="url(#ProcessOnMarker1091)"/></g><g id="ProcessOnG1093" transform="matrix(1.0,0.0,0.0,1.0,894.0,278.0)" opacity="1.0"><path id="ProcessOnPath1094" d="M0.0 4.0Q0.0 0.0 4.0 0.0L148.0 0.0Q152.0 0.0 152.0 4.0L152.0 41.0Q152.0 45.0 148.0 45.0L4.0 45.0Q0.0 45.0 0.0 41.0Z" stroke="#323232" stroke-width="2.0" stroke-dasharray="none" opacity="1.0" fill="#ff99cc"/><g id="ProcessOnG1095" transform="matrix(1.0,0.0,0.0,1.0,10.0,14.375)"><text id="ProcessOnText1096" fill="#323232" font-weight="normal" font-style="normal" text-decoration="blink" font-family="Arial,宋体" text-anchor="middle" font-size="13" x="66.0" y="13.325">CoreSDK-Haier</text></g></g><g id="ProcessOnG1097" transform="matrix(1.0,0.0,0.0,1.0,623.5,290.0)" opacity="1.0"><path id="ProcessOnPath1098" d="M0.0 4.0Q0.0 0.0 4.0 0.0L79.5 0.0Q83.5 0.0 83.5 4.0L83.5 38.0Q83.5 42.0 79.5 42.0L4.0 42.0Q0.0 42.0 0.0 38.0Z" stroke="#323232" stroke-width="2.0" stroke-dasharray="none" opacity="1.0" fill="#99ccff"/><g id="ProcessOnG1099" transform="matrix(1.0,0.0,0.0,1.0,10.0,12.875)"><text id="ProcessOnText1100" fill="#323232" font-weight="normal" font-style="normal" text-decoration="blink" font-family="Arial,宋体" text-anchor="middle" font-size="13" x="31.75" y="13.325">RxJava</text></g></g><g id="ProcessOnG1101" transform="matrix(1.0,0.0,0.0,1.0,640.0,205.5)" opacity="1.0"><path id="ProcessOnPath1102" d="M0.0 4.0Q0.0 0.0 4.0 0.0L172.25 0.0Q176.25 0.0 176.25 4.0L176.25 40.0Q176.25 44.0 172.25 44.0L4.0 44.0Q0.0 44.0 0.0 40.0Z" stroke="#323232" stroke-width="2.0" stroke-dasharray="none" opacity="1.0" fill="#9999ff"/><g id="ProcessOnG1103" transform="matrix(1.0,0.0,0.0,1.0,10.0,13.875)"><text id="ProcessOnText1104" fill="#323232" font-weight="normal" font-style="normal" text-decoration="blink" font-family="Arial,宋体" text-anchor="middle" font-size="13" x="78.125" y="13.325">CoreSDK-Common</text></g></g><g id="ProcessOnG1105" transform="matrix(1.0,0.0,0.0,1.0,813.875,374.0)" opacity="1.0"><path id="ProcessOnPath1106" d="M0.0 4.0Q0.0 0.0 4.0 0.0L111.0 0.0Q115.0 0.0 115.0 4.0L115.0 47.0Q115.0 51.0 111.0 51.0L4.0 51.0Q0.0 51.0 0.0 47.0Z" stroke="#323232" stroke-width="2.0" stroke-dasharray="none" opacity="1.0" fill="#ffb366"/><g id="ProcessOnG1107" transform="matrix(1.0,0.0,0.0,1.0,10.0,17.375)"><text id="ProcessOnText1108" fill="#323232" font-weight="normal" font-style="normal" text-decoration="blink" font-family="Arial,宋体" text-anchor="middle" font-size="13" x="47.5" y="13.325">uSDK</text></g></g><g id="ProcessOnG1109"><path id="ProcessOnPath1110" d="M970.0 323.0L970.0 348.5L871.375 348.5L871.375 358.7639320225002" stroke="#323232" stroke-width="2.0" stroke-dasharray="none" fill="none" marker-end="url(#ProcessOnMarker1111)"/></g><g id="ProcessOnG1113" transform="matrix(1.0,0.0,0.0,1.0,946.0,374.0)" opacity="1.0"><path id="ProcessOnPath1114" d="M0.0 4.0Q0.0 0.0 4.0 0.0L111.0 0.0Q115.0 0.0 115.0 4.0L115.0 47.0Q115.0 51.0 111.0 51.0L4.0 51.0Q0.0 51.0 0.0 47.0Z" stroke="#323232" stroke-width="2.0" stroke-dasharray="none" opacity="1.0" fill="#ffb366"/><g id="ProcessOnG1115" transform="matrix(1.0,0.0,0.0,1.0,10.0,17.375)"><text id="ProcessOnText1116" fill="#323232" font-weight="normal" font-style="normal" text-decoration="blink" font-family="Arial,宋体" text-anchor="middle" font-size="13" x="47.5" y="13.325">OpenAPI</text></g></g><g id="ProcessOnG1117"><path id="ProcessOnPath1118" d="M970.0 323.0L970.0 348.5L1003.5 348.5L1003.5 358.7639320225002" stroke="#323232" stroke-width="2.0" stroke-dasharray="none" fill="none" marker-end="url(#ProcessOnMarker1119)"/></g><g id="ProcessOnG1121"><path id="ProcessOnPath1122" d="M894.0 300.5L855.125 300.5L855.125 227.5L831.4860679774998 227.5" stroke="#323232" stroke-width="2.0" stroke-dasharray="none" fill="none" marker-end="url(#ProcessOnMarker1123)"/></g><g id="ProcessOnG1125"><path id="ProcessOnPath1126" d="M549.5 300.5L594.75 300.5L594.75 227.5L624.7639320225002 227.5" stroke="#323232" stroke-width="2.0" stroke-dasharray="none" fill="none" marker-end="url(#ProcessOnMarker1127)"/></g><g id="ProcessOnG1129"><path id="ProcessOnPath1130" d="M728.125 249.5L728.125 269.75L665.25 269.75L665.25 274.7639320225002" stroke="#323232" stroke-width="2.0" stroke-dasharray="none" fill="none" marker-end="url(#ProcessOnMarker1131)"/></g><g id="ProcessOnG1133" transform="matrix(1.0,0.0,0.0,1.0,745.375,290.0)" opacity="1.0"><path id="ProcessOnPath1134" d="M0.0 4.0Q0.0 0.0 4.0 0.0L79.5 0.0Q83.5 0.0 83.5 4.0L83.5 38.0Q83.5 42.0 79.5 42.0L4.0 42.0Q0.0 42.0 0.0 38.0Z" stroke="#323232" stroke-width="2.0" stroke-dasharray="none" opacity="1.0" fill="#99ccff"/><g id="ProcessOnG1135" transform="matrix(1.0,0.0,0.0,1.0,10.0,12.875)"><text id="ProcessOnText1136" fill="#323232" font-weight="normal" font-style="normal" text-decoration="blink" font-family="Arial,宋体" text-anchor="middle" font-size="13" x="31.75" y="13.325">Eventbus</text></g></g><g id="ProcessOnG1137"><path id="ProcessOnPath1138" d="M728.125 249.5L728.125 269.75L787.125 269.75L787.125 274.7639320225002" stroke="#323232" stroke-width="2.0" stroke-dasharray="none" fill="none" marker-end="url(#ProcessOnMarker1139)"/></g><g id="ProcessOnG1141"><path id="ProcessOnPath1142" d="M645.4375 154.75L462.75 154.75L462.75 262.7639320225002" stroke="#323232" stroke-width="2.0" stroke-dasharray="10.0 4.0" fill="none" marker-end="url(#ProcessOnMarker1143)"/></g><g id="ProcessOnG1145"><path id="ProcessOnPath1146" d="M822.8125 154.75L970.0 154.75L970.0 262.7639320225002" stroke="#323232" stroke-width="2.0" stroke-dasharray="10.0 4.0" fill="none" marker-end="url(#ProcessOnMarker1147)"/></g></g></g></svg>