<svg xmlns="http://www.w3.org/2000/svg" viewBox="111.0 197.0 904.0 645.0" width="904" height="645"><defs><linearGradient id="a" x1=".5" x2=".099" y2="1"><stop stop-color="#d8ffff" offset="0"/><stop stop-color="#9cc3c3" offset="1"/></linearGradient><linearGradient id="b" x1=".5" x2=".099" y2="1"><stop stop-color="#c9c9c9" offset="0"/><stop stop-color="#8d8d8d" offset="1"/></linearGradient><linearGradient id="c" x1=".5" x2=".099" y2="1"><stop stop-color="#8ac4ff" offset="0"/><stop stop-color="#4e88c3" offset="1"/></linearGradient><linearGradient id="d" x1=".5" x2=".099" y2="1"><stop stop-color="#ffecd8" offset="0"/><stop stop-color="#c3b09c" offset="1"/></linearGradient><linearGradient id="e" x1=".5" x2=".5" y2="1"><stop stop-color="#c9c9c9" offset="0"/><stop stop-color="#8d8d8d" offset="1"/></linearGradient><linearGradient id="f" x1=".5" x2=".099" y2="1"><stop stop-color="#fff" offset="0"/><stop stop-color="#c3c3c3" offset="1"/></linearGradient><linearGradient id="g" x1=".5" x2=".099" y2="1"><stop stop-color="#fff" offset="0"/><stop stop-color="#c3c3c3" offset="1"/></linearGradient><linearGradient id="h" x1=".5" x2=".5" y2="1"><stop stop-color="#d8ffff" offset="0"/><stop stop-color="#9cc3c3" offset="1"/></linearGradient></defs><path d="M111 197h904v645H111V197z" fill="none"/><path d="M0 0h716v390H0z" stroke="#323232" stroke-width="2" fill="url(#a)" transform="translate(131 432)"/><text font-weight="bold" text-decoration="blink" font-family="微软雅黑" text-anchor="middle" font-size="13" x="348" y="29.575" transform="translate(141 432)">CoreSDK</text><path d="M0 0h509v228H0z" stroke="#323232" stroke-width="2" fill="url(#b)" transform="translate(146 577)"/><text font-weight="bold" text-decoration="blink" font-family="微软雅黑" text-anchor="middle" font-size="14" x="244.5" y="31.85" transform="translate(156 577)">CoreSDK - Djlink</text><path d="M0 0h688v95H0z" stroke="#323232" stroke-width="2" fill="url(#c)" transform="translate(146 474)"/><text font-weight="bold" text-decoration="blink" font-family="微软雅黑" text-anchor="middle" font-size="13" x="334" y="29.575" transform="translate(156 474)">CoreSDK - Common</text><path d="M0 0h863v94H0z" stroke="#323232" stroke-width="2" fill="url(#d)" transform="translate(132 327)"/><text font-weight="bold" text-decoration="blink" font-family="微软雅黑" text-anchor="middle" font-size="13" x="421.5" y="29.575" transform="translate(142 327)">IOTSDK</text><path d="M0 0h171v229H0z" stroke="#323232" stroke-width="2" fill="url(#e)" transform="translate(663 576.5)"/><text font-weight="bold" text-decoration="blink" font-family="微软雅黑" text-anchor="middle" font-size="14" x="75.5" y="31.85" transform="translate(673 576.5)">CoreSDK - Haier</text><path d="M184 519q0-4 4-4h155q4 0 4 4v33q0 4-4 4H188q-4 0-4-4z" stroke="#323232" stroke-width="2" fill="#fcc"/><text font-weight="bold" text-decoration="blink" font-family="微软雅黑" text-anchor="middle" font-size="13" x="71.5" y="13.325" transform="translate(194 527.375)">Core - CommonAPI</text><path d="M156 676.5q0-4 4-4h157q4 0 4 4V780q0 4-4 4H160q-4 0-4-4z" stroke="#323232" stroke-width="2" fill="#fff"/><g font-weight="bold" font-family="微软雅黑" text-anchor="middle" font-size="13"><text text-decoration="blink" x="72.5" y="29.575" transform="translate(166 672.5)">S Protocol</text><text text-decoration="blink" x="72.5" y="45.825" transform="translate(166 672.5)">Module</text></g><path d="M165 730.5q0-4 4-4h61q4 0 4 4v38q0 4-4 4h-61q-4 0-4-4z" stroke="#323232" stroke-width="2" fill="#fc9"/><g font-weight="bold" font-family="微软雅黑" text-anchor="middle" font-size="13"><text text-decoration="blink" x="24.5" y="13.325" transform="translate(175 733.25)">MQTT</text><text text-decoration="blink" x="24.5" y="29.575" transform="translate(175 733.25)">Service</text></g><path d="M243 730.5q0-4 4-4h63q4 0 4 4v38q0 4-4 4h-63q-4 0-4-4z" stroke="#323232" stroke-width="2" fill="#fc9"/><g font-weight="bold" font-family="微软雅黑" text-anchor="middle" font-size="13"><text text-decoration="blink" x="25.5" y="13.325" transform="translate(253 733.25)">HTTP</text><text text-decoration="blink" x="25.5" y="29.575" transform="translate(253 733.25)">Service</text></g><path d="M432.5 676.5q0-4 4-4H528q4 0 4 4V780q0 4-4 4h-91.5q-4 0-4-4z" stroke="#323232" stroke-width="2" fill="#fff"/><g font-weight="bold" font-family="微软雅黑" text-anchor="middle" font-size="13"><text text-decoration="blink" x="39.75" y="29.575" transform="translate(442.5 672.5)">B Protocol</text><text text-decoration="blink" x="39.75" y="45.825" transform="translate(442.5 672.5)">Module</text></g><path d="M446.5 730.5q0-4 4-4H514q4 0 4 4v38q0 4-4 4h-63.5q-4 0-4-4z" stroke="#323232" stroke-width="2" fill="#fc9"/><g font-weight="bold" font-family="微软雅黑" text-anchor="middle" font-size="13"><text text-decoration="blink" x="25.75" y="13.325" transform="translate(456.5 733.25)">BLE</text><text text-decoration="blink" x="25.75" y="29.575" transform="translate(456.5 733.25)">Service</text></g><path d="M330.5 676.5q0-4 4-4h87q4 0 4 4V780q0 4-4 4h-87q-4 0-4-4z" stroke="#323232" stroke-width="2" fill="#fff"/><g font-weight="bold" font-family="微软雅黑" text-anchor="middle" font-size="13"><text text-decoration="blink" x="37.5" y="29.575" transform="translate(340.5 672.5)">L Protocol</text><text text-decoration="blink" x="37.5" y="45.825" transform="translate(340.5 672.5)">Module</text></g><path d="M342.5 730.5q0-4 4-4h63q4 0 4 4v38q0 4-4 4h-63q-4 0-4-4z" stroke="#323232" stroke-width="2" fill="#fc9"/><g font-weight="bold" font-family="微软雅黑" text-anchor="middle" font-size="13"><text text-decoration="blink" x="25.5" y="13.325" transform="translate(352.5 733.25)">Socket</text><text text-decoration="blink" x="25.5" y="29.575" transform="translate(352.5 733.25)">Service</text></g><path d="M366.5 519q0-4 4-4H522q4 0 4 4v33q0 4-4 4H370.5q-4 0-4-4z" stroke="#323232" stroke-width="2" fill="#fcc"/><text font-weight="bold" text-decoration="blink" font-family="微软雅黑" text-anchor="middle" font-size="13" x="69.75" y="13.325" transform="translate(376.5 527.375)">Core - CommonDTO</text><path d="M549 519q0-4 4-4h106q4 0 4 4v33q0 4-4 4H553q-4 0-4-4z" stroke="#323232" stroke-width="2" fill="#fcc"/><text font-weight="bold" text-decoration="blink" font-family="微软雅黑" text-anchor="middle" font-size="13" x="47" y="13.325" transform="translate(559 527.375)">Core - MQ</text><path d="M689 519q0-4 4-4h106q4 0 4 4v33q0 4-4 4H693q-4 0-4-4z" stroke="#323232" stroke-width="2" fill="#fcc"/><text font-weight="bold" text-decoration="blink" font-family="微软雅黑" text-anchor="middle" font-size="13" x="47" y="13.325" transform="translate(699 527.375)">Core - Rx</text><path d="M156 371q0-4 4-4h74q4 0 4 4v33q0 4-4 4h-74q-4 0-4-4z" stroke="#323232" stroke-width="2" fill="#ff9"/><g font-weight="bold" font-family="微软雅黑" text-anchor="middle" font-size="13"><text text-decoration="blink" x="31" y="13.325" transform="translate(166 371.25)">IOT</text><text text-decoration="blink" x="31" y="29.575" transform="translate(166 371.25)">Service</text></g><path d="M256.5 371q0-4 4-4h91q4 0 4 4v33q0 4-4 4h-91q-4 0-4-4z" stroke="#323232" stroke-width="2" fill="#ff9"/><g font-weight="bold" font-family="微软雅黑" text-anchor="middle" font-size="13"><text text-decoration="blink" x="39.5" y="13.325" transform="translate(266.5 371.25)">IOT</text><text text-decoration="blink" x="39.5" y="29.575" transform="translate(266.5 371.25)">PublicAPI</text></g><path d="M674.5 625.5q0-4 4-4h135q4 0 4 4V654q0 4-4 4h-135q-4 0-4-4z" stroke="#323232" stroke-width="2" fill="#fff"/><text font-weight="bold" text-decoration="blink" font-family="微软雅黑" text-anchor="middle" font-size="13" x="61.5" y="13.325" transform="translate(684.5 631.625)">uSDK</text><path d="M674.5 673.5q0-4 4-4h135q4 0 4 4V700q0 4-4 4h-135q-4 0-4-4z" stroke="#323232" stroke-width="2" fill="#fff"/><text font-weight="bold" text-decoration="blink" font-family="微软雅黑" text-anchor="middle" font-size="13" x="61.5" y="13.325" transform="translate(684.5 678.625)">OpenAPI</text><path d="M159 631q0-4 4-4h143q4 0 4 4v26q0 4-4 4H163q-4 0-4-4z" stroke="#323232" stroke-width="2" fill="#fff"/><text font-weight="bold" text-decoration="blink" font-family="微软雅黑" text-anchor="middle" font-size="13" x="65.5" y="13.325" transform="translate(169 635.875)">Dev Data Filter</text><path d="M321 631q0-4 4-4h137q4 0 4 4v26q0 4-4 4H325q-4 0-4-4z" stroke="#323232" stroke-width="2" fill="#fff"/><text font-weight="bold" text-decoration="blink" font-family="微软雅黑" text-anchor="middle" font-size="13" x="62.5" y="13.325" transform="translate(331 635.875)">Dev Data Parser</text><path d="M478 631q0-4 4-4h140q4 0 4 4v26q0 4-4 4H482q-4 0-4-4z" stroke="#323232" stroke-width="2" fill="#fff"/><text font-weight="bold" text-decoration="blink" font-family="微软雅黑" text-anchor="middle" font-size="13" x="64" y="13.325" transform="translate(488 635.875)">Protocol Helper</text><path d="M674.5 762q0-4 4-4h135q4 0 4 4v27q0 4-4 4h-135q-4 0-4-4z" stroke="#323232" stroke-width="2" fill="#fff"/><text font-weight="bold" text-decoration="blink" font-family="微软雅黑" text-anchor="middle" font-size="13" x="61.5" y="13.325" transform="translate(684.5 767.375)">Dev Data Parser</text><g><path d="M674.5 718q0-4 4-4h135q4 0 4 4v27q0 4-4 4h-135q-4 0-4-4z" stroke="#323232" stroke-width="2" fill="#fff"/><text font-weight="bold" text-decoration="blink" font-family="微软雅黑" text-anchor="middle" font-size="13" x="61.5" y="13.325" transform="translate(684.5 723.375)">Protocol Helper</text></g><g><path d="M616 371q0-4 4-4h97q4 0 4 4v33q0 4-4 4h-97q-4 0-4-4z" stroke="#323232" stroke-width="2" fill="#ff9"/><g font-weight="bold" font-family="微软雅黑" text-anchor="middle" font-size="13"><text text-decoration="blink" x="42.5" y="13.325" transform="translate(626 371.25)">IOT</text><text text-decoration="blink" x="42.5" y="29.575" transform="translate(626 371.25)">FakeDevice</text></g></g><g><path d="M375.5 371q0-4 4-4H478q4 0 4 4v33q0 4-4 4h-98.5q-4 0-4-4z" stroke="#323232" stroke-width="2" fill="#ff9"/><g font-weight="bold" font-family="微软雅黑" text-anchor="middle" font-size="13"><text text-decoration="blink" x="43.25" y="13.325" transform="translate(385.5 371.25)">IOT</text><text text-decoration="blink" x="43.25" y="29.575" transform="translate(385.5 371.25)">BasicLogic</text></g></g><g><path d="M500 371q0-4 4-4h84.5q4 0 4 4v33q0 4-4 4H504q-4 0-4-4z" stroke="#323232" stroke-width="2" fill="#ff9"/><g font-weight="bold" font-family="微软雅黑" text-anchor="middle" font-size="13"><text text-decoration="blink" x="36.25" y="13.325" transform="translate(510 371.25)">IOT</text><text text-decoration="blink" x="36.25" y="29.575" transform="translate(510 371.25)">ExtLogic</text></g></g><g><path d="M540.875 676.5q0-4 4-4h95q4 0 4 4V780q0 4-4 4h-95q-4 0-4-4z" stroke="#323232" stroke-width="2" fill="#fff"/><g font-weight="bold" font-family="微软雅黑" text-anchor="middle" font-size="13"><text text-decoration="blink" x="41.5" y="29.575" transform="translate(550.875 672.5)">Smartlink</text><text text-decoration="blink" x="41.5" y="45.825" transform="translate(550.875 672.5)">Module</text></g></g><g><path d="M551 727.5q0-4 4-4h75q4 0 4 4V741q0 4-4 4h-75q-4 0-4-4z" stroke="#323232" stroke-width="2" fill="#fc9"/><text font-weight="bold" text-decoration="blink" font-family="微软雅黑" text-anchor="middle" font-size="13" x="31.5" y="13.325" transform="translate(561 726.125)">HF</text></g><g><path d="M550.75 757q0-4 4-4H630q4 0 4 4v15q0 4-4 4h-75.25q-4 0-4-4z" stroke="#323232" stroke-width="2" fill="#fc9"/><text font-weight="bold" text-decoration="blink" font-family="微软雅黑" text-anchor="middle" font-size="13" x="31.625" y="13.325" transform="translate(560.75 756.375)">Dj500</text></g><g><path d="M745 371q0-4 4-4h97q4 0 4 4v33q0 4-4 4h-97q-4 0-4-4z" stroke="#323232" stroke-width="2" fill="#ff9"/><g font-weight="bold" font-family="微软雅黑" text-anchor="middle" font-size="13"><text text-decoration="blink" x="42.5" y="13.325" transform="translate(755 371.25)">IOT</text><text text-decoration="blink" x="42.5" y="29.575" transform="translate(755 371.25)">DebugUtils</text></g></g><g><path d="M0 0h408.875v100H0z" stroke="#323232" stroke-width="2" fill="url(#f)" transform="translate(132 217)"/><text font-weight="bold" text-decoration="blink" font-family="微软雅黑" text-anchor="middle" font-size="13" x="194.438" y="29.575" transform="translate(142 217)">Hybrid SDK（JS）</text></g><g><path d="M0 0h441v100H0z" stroke="#323232" stroke-width="2" fill="url(#g)" transform="translate(550.75 217)"/><text font-weight="bold" text-decoration="blink" font-family="微软雅黑" text-anchor="middle" font-size="13" x="210.5" y="29.575" transform="translate(560.75 217)">BigData SDK</text></g><g><path d="M565.75 265q0-4 4-4h84.5q4 0 4 4v33q0 4-4 4h-84.5q-4 0-4-4z" stroke="#323232" stroke-width="2" fill="#e6ffcc"/><g font-weight="bold" font-family="微软雅黑" text-anchor="middle" font-size="13"><text text-decoration="blink" x="36.25" y="13.325" transform="translate(575.75 265.25)">User</text><text text-decoration="blink" x="36.25" y="29.575" transform="translate(575.75 265.25)">Operation</text></g></g><g><path d="M670.75 265q0-4 4-4h84.5q4 0 4 4v33q0 4-4 4h-84.5q-4 0-4-4z" stroke="#323232" stroke-width="2" fill="#e6ffcc"/><g font-weight="bold" font-family="微软雅黑" text-anchor="middle" font-size="13"><text text-decoration="blink" x="36.25" y="13.325" transform="translate(680.75 265.25)">Device</text><text text-decoration="blink" x="36.25" y="29.575" transform="translate(680.75 265.25)">Operation</text></g></g><g><path d="M153.5 270q0-4 4-4H256q4 0 4 4v33q0 4-4 4h-98.5q-4 0-4-4z" stroke="#323232" stroke-width="2" fill="#cfc"/><g font-weight="bold" font-family="微软雅黑" text-anchor="middle" font-size="13"><text text-decoration="blink" x="43.25" y="13.325" transform="translate(163.5 270.25)">IOTSDK</text><text text-decoration="blink" x="43.25" y="29.575" transform="translate(163.5 270.25)">JSWrapper</text></g></g><g><path d="M776.75 265q0-4 4-4h84.5q4 0 4 4v33q0 4-4 4h-84.5q-4 0-4-4z" stroke="#323232" stroke-width="2" fill="#e6ffcc"/><g font-weight="bold" font-family="微软雅黑" text-anchor="middle" font-size="13"><text text-decoration="blink" x="36.25" y="13.325" transform="translate(786.75 265.25)">Error</text><text text-decoration="blink" x="36.25" y="29.575" transform="translate(786.75 265.25)">Collection</text></g></g><g><path d="M283.906 270q0-4 4-4h97.063q4 0 4 4v33q0 4-4 4h-97.063q-4 0-4-4z" stroke="#323232" stroke-width="2" fill="#cfc"/><g font-weight="bold" font-family="微软雅黑" text-anchor="middle" font-size="13"><text text-decoration="blink" x="42.531" y="13.325" transform="translate(293.906 270.25)">WebNative</text><text text-decoration="blink" x="42.531" y="29.575" transform="translate(293.906 270.25)">UISync</text></g></g><g><path d="M882.75 265q0-4 4-4h84.5q4 0 4 4v33q0 4-4 4h-84.5q-4 0-4-4z" stroke="#323232" stroke-width="2" fill="#e6ffcc"/><g font-weight="bold" font-family="微软雅黑" text-anchor="middle" font-size="13"><text text-decoration="blink" x="36.25" y="13.325" transform="translate(892.75 265.25)">Other</text><text text-decoration="blink" x="36.25" y="29.575" transform="translate(892.75 265.25)">Collection</text></g></g><g><path d="M0 0h138.5v390H0z" stroke="#323232" stroke-width="2" fill="url(#h)" transform="translate(856.5 432)"/><text font-weight="bold" text-decoration="blink" font-family="微软雅黑" text-anchor="middle" font-size="14" x="59.25" y="31.85" transform="translate(866.5 432)">AbleSDK</text></g><g><path d="M873 371q0-4 4-4h84.5q4 0 4 4v33q0 4-4 4H877q-4 0-4-4z" stroke="#323232" stroke-width="2" fill="#ff9"/><g font-weight="bold" font-family="微软雅黑" text-anchor="middle" font-size="13"><text text-decoration="blink" x="36.25" y="13.325" transform="translate(883 371.25)">IOT</text><text text-decoration="blink" x="36.25" y="29.575" transform="translate(883 371.25)">Log</text></g></g><g><path d="M877 660q0-4 4-4h89.5q4 0 4 4v50q0 4-4 4H881q-4 0-4-4z" stroke="#323232" stroke-width="2" fill="#fff"/><g font-weight="bold" font-family="微软雅黑" text-anchor="middle" font-size="13"><text text-decoration="blink" x="38.75" y="13.325" transform="translate(887 668.75)">PM</text><text text-decoration="blink" x="38.75" y="29.575" transform="translate(887 668.75)">API</text></g></g><g><path d="M877 739q0-4 4-4h89.5q4 0 4 4v50q0 4-4 4H881q-4 0-4-4z" stroke="#323232" stroke-width="2" fill="#fff"/><g font-weight="bold" font-family="微软雅黑" text-anchor="middle" font-size="13"><text text-decoration="blink" x="38.75" y="13.325" transform="translate(887 747.75)">Weather</text><text text-decoration="blink" x="38.75" y="29.575" transform="translate(887 747.75)">API</text></g></g><g><path d="M877 580.5q0-4 4-4h89.5q4 0 4 4v50q0 4-4 4H881q-4 0-4-4z" stroke="#323232" stroke-width="2" fill="#fff"/><g font-weight="bold" font-family="微软雅黑" text-anchor="middle" font-size="13"><text text-decoration="blink" x="38.75" y="13.325" transform="translate(887 589.25)">File</text><text text-decoration="blink" x="38.75" y="29.575" transform="translate(887 589.25)">API</text></g></g><g><path d="M877 502q0-4 4-4h89.5q4 0 4 4v50q0 4-4 4H881q-4 0-4-4z" stroke="#323232" stroke-width="2" fill="#fff"/><g font-weight="bold" font-family="微软雅黑" text-anchor="middle" font-size="13"><text text-decoration="blink" x="38.75" y="13.325" transform="translate(887 510.75)">ProvCity</text><text text-decoration="blink" x="38.75" y="29.575" transform="translate(887 510.75)">API</text></g></g><g><path d="M408 270q0-4 4-4h102q4 0 4 4v33q0 4-4 4H412q-4 0-4-4z" stroke="#323232" stroke-width="2" fill="#cfc"/><g font-weight="bold" font-family="微软雅黑" text-anchor="middle" font-size="13"><text text-decoration="blink" x="45" y="13.325" transform="translate(418 270.25)">Native</text><text text-decoration="blink" x="45" y="29.575" transform="translate(418 270.25)">Capacity</text></g></g></svg>