<svg xmlns="http://www.w3.org/2000/svg" viewBox="90.0 81.0 824.0 638.0" width="824" height="638"><defs><marker id="a" markerUnits="userSpaceOnUse" orient="auto" markerWidth="16.236" markerHeight="10.551" viewBox="-1.0 -1.3763819204711736 16.23606797749979 10.550836550532098" refX="-1" refY="3.899"><path d="M12 3.899l-12 3.9V0z" stroke="#323232" stroke-width="2" fill="#323232"/></marker><marker id="b" markerUnits="userSpaceOnUse" orient="auto" markerWidth="16.236" markerHeight="10.551" viewBox="-1.0 -1.3763819204711736 16.23606797749979 10.550836550532098" refX="-1" refY="3.899"><path d="M12 3.899l-12 3.9V0z" stroke="#323232" stroke-width="2" fill="#323232"/></marker><marker id="c" markerUnits="userSpaceOnUse" orient="auto" markerWidth="16.236" markerHeight="10.551" viewBox="-1.0 -1.3763819204711736 16.23606797749979 10.550836550532098" refX="-1" refY="3.899"><path d="M12 3.899l-12 3.9V0z" stroke="#323232" stroke-width="2" fill="#323232"/></marker><marker id="d" markerUnits="userSpaceOnUse" orient="auto" markerWidth="16.236" markerHeight="10.551" viewBox="-1.0 -1.3763819204711736 16.23606797749979 10.550836550532098" refX="-1" refY="3.899"><path d="M12 3.899l-12 3.9V0z" stroke="#323232" stroke-width="2" fill="#323232"/></marker><marker id="e" markerUnits="userSpaceOnUse" orient="auto" markerWidth="16.236" markerHeight="10.551" viewBox="-1.0 -1.3763819204711736 16.23606797749979 10.550836550532098" refX="-1" refY="3.899"><path d="M12 3.899l-12 3.9V0z" stroke="#323232" stroke-width="2" fill="#323232"/></marker><marker id="f" markerUnits="userSpaceOnUse" orient="auto" markerWidth="16.236" markerHeight="10.551" viewBox="-1.0 -1.3763819204711736 16.23606797749979 10.550836550532098" refX="-1" refY="3.899"><path d="M12 3.899l-12 3.9V0z" stroke="#323232" stroke-width="2" fill="#323232"/></marker><marker id="g" markerUnits="userSpaceOnUse" orient="auto" markerWidth="16.236" markerHeight="10.551" viewBox="-1.0 -1.3763819204711736 16.23606797749979 10.550836550532098" refX="-1" refY="3.899"><path d="M12 3.899l-12 3.9V0z" stroke="#323232" stroke-width="2" fill="#323232"/></marker><marker id="h" markerUnits="userSpaceOnUse" orient="auto" markerWidth="16.236" markerHeight="10.551" viewBox="-1.0 -1.3763819204711736 16.23606797749979 10.550836550532098" refX="-1" refY="3.899"><path d="M12 3.899l-12 3.9V0z" stroke="#323232" stroke-width="2" fill="#323232"/></marker><marker id="i" markerUnits="userSpaceOnUse" orient="auto" markerWidth="16.236" markerHeight="10.551" viewBox="-1.0 -1.3763819204711736 16.23606797749979 10.550836550532098" refX="-1" refY="3.899"><path d="M12 3.899l-12 3.9V0z" stroke="#323232" stroke-width="2" fill="#323232"/></marker><marker id="j" markerUnits="userSpaceOnUse" orient="auto" markerWidth="16.236" markerHeight="10.551" viewBox="-1.0 -1.3763819204711736 16.23606797749979 10.550836550532098" refX="-1" refY="3.899"><path d="M12 3.899l-12 3.9V0z" stroke="#323232" stroke-width="2" fill="#323232"/></marker><marker id="k" markerUnits="userSpaceOnUse" orient="auto" markerWidth="16.236" markerHeight="10.551" viewBox="-1.0 -1.3763819204711736 16.23606797749979 10.550836550532098" refX="-1" refY="3.899"><path d="M12 3.899l-12 3.9V0z" stroke="#323232" stroke-width="2" fill="#323232"/></marker><marker id="l" markerUnits="userSpaceOnUse" orient="auto" markerWidth="16.236" markerHeight="10.551" viewBox="-1.0 -1.3763819204711736 16.23606797749979 10.550836550532098" refX="-1" refY="3.899"><path d="M12 3.899l-12 3.9V0z" stroke="#323232" stroke-width="2" fill="#323232"/></marker><marker id="m" markerUnits="userSpaceOnUse" orient="auto" markerWidth="16.236" markerHeight="10.551" viewBox="-1.0 -1.3763819204711736 16.23606797749979 10.550836550532098" refX="-1" refY="3.899"><path d="M12 3.899l-12 3.9V0z" stroke="#323232" stroke-width="2" fill="#323232"/></marker><marker id="n" markerUnits="userSpaceOnUse" orient="auto" markerWidth="16.236" markerHeight="10.551" viewBox="-1.0 -1.3763819204711736 16.23606797749979 10.550836550532098" refX="-1" refY="3.899"><path d="M12 3.899l-12 3.9V0z" stroke="#323232" stroke-width="2" fill="#323232"/></marker><marker id="o" markerUnits="userSpaceOnUse" orient="auto" markerWidth="16.236" markerHeight="10.551" viewBox="-1.0 -1.3763819204711736 16.23606797749979 10.550836550532098" refX="-1" refY="3.899"><path d="M12 3.899l-12 3.9V0z" stroke="#323232" stroke-width="2" fill="#323232"/></marker><marker id="p" markerUnits="userSpaceOnUse" orient="auto" markerWidth="16.236" markerHeight="10.551" viewBox="-1.0 -1.3763819204711736 16.23606797749979 10.550836550532098" refX="-1" refY="3.899"><path d="M12 3.899l-12 3.9V0z" stroke="#323232" stroke-width="2" fill="#323232"/></marker><marker id="q" markerUnits="userSpaceOnUse" orient="auto" markerWidth="16.236" markerHeight="10.551" viewBox="-1.0 -1.3763819204711736 16.23606797749979 10.550836550532098" refX="-1" refY="3.899"><path d="M12 3.899l-12 3.9V0z" stroke="#323232" stroke-width="2" fill="#323232"/></marker><marker id="r" markerUnits="userSpaceOnUse" orient="auto" markerWidth="16.236" markerHeight="10.551" viewBox="-1.0 -1.3763819204711736 16.23606797749979 10.550836550532098" refX="-1" refY="3.899"><path d="M12 3.899l-12 3.9V0z" stroke="#323232" stroke-width="2" fill="#323232"/></marker><marker id="s" markerUnits="userSpaceOnUse" orient="auto" markerWidth="16.236" markerHeight="10.551" viewBox="-1.0 -1.3763819204711736 16.23606797749979 10.550836550532098" refX="-1" refY="3.899"><path d="M12 3.899l-12 3.9V0z" stroke="#323232" stroke-width="2" fill="#323232"/></marker><marker id="t" markerUnits="userSpaceOnUse" orient="auto" markerWidth="16.236" markerHeight="10.551" viewBox="-1.0 -1.3763819204711736 16.23606797749979 10.550836550532098" refX="-1" refY="3.899"><path d="M12 3.899l-12 3.9V0z" stroke="#323232" stroke-width="2" fill="#323232"/></marker><marker id="u" markerUnits="userSpaceOnUse" orient="auto" markerWidth="16.236" markerHeight="10.551" viewBox="-1.0 -1.3763819204711736 16.23606797749979 10.550836550532098" refX="-1" refY="3.899"><path d="M12 3.899l-12 3.9V0z" stroke="#323232" stroke-width="2" fill="#323232"/></marker><marker id="v" markerUnits="userSpaceOnUse" orient="auto" markerWidth="16.236" markerHeight="10.551" viewBox="-1.0 -1.3763819204711736 16.23606797749979 10.550836550532098" refX="-1" refY="3.899"><path d="M12 3.899l-12 3.9V0z" stroke="#323232" stroke-width="2" fill="#323232"/></marker><marker id="w" markerUnits="userSpaceOnUse" orient="auto" markerWidth="16.236" markerHeight="10.551" viewBox="-1.0 -1.3763819204711736 16.23606797749979 10.550836550532098" refX="-1" refY="3.899"><path d="M12 3.899l-12 3.9V0z" stroke="#323232" stroke-width="2" fill="#323232"/></marker><marker id="x" markerUnits="userSpaceOnUse" orient="auto" markerWidth="16.236" markerHeight="10.551" viewBox="-1.0 -1.3763819204711736 16.23606797749979 10.550836550532098" refX="-1" refY="3.899"><path d="M12 3.899l-12 3.9V0z" stroke="#323232" stroke-width="2" fill="#323232"/></marker><marker id="y" markerUnits="userSpaceOnUse" orient="auto" markerWidth="16.236" markerHeight="10.551" viewBox="-1.0 -1.3763819204711736 16.23606797749979 10.550836550532098" refX="-1" refY="3.899"><path d="M12 3.899l-12 3.9V0z" stroke="#323232" stroke-width="2" fill="#323232"/></marker><marker id="z" markerUnits="userSpaceOnUse" orient="auto" markerWidth="16.236" markerHeight="10.551" viewBox="-1.0 -1.3763819204711736 16.23606797749979 10.550836550532098" refX="-1" refY="3.899"><path d="M12 3.899l-12 3.9V0z" stroke="#323232" stroke-width="2" fill="#323232"/></marker><marker id="A" markerUnits="userSpaceOnUse" orient="auto" markerWidth="16.236" markerHeight="10.551" viewBox="-1.0 -1.3763819204711736 16.23606797749979 10.550836550532098" refX="-1" refY="3.899"><path d="M12 3.899l-12 3.9V0z" stroke="#323232" stroke-width="2" fill="#323232"/></marker><marker id="B" markerUnits="userSpaceOnUse" orient="auto" markerWidth="16.236" markerHeight="10.551" viewBox="-1.0 -1.3763819204711736 16.23606797749979 10.550836550532098" refX="-1" refY="3.899"><path d="M12 3.899l-12 3.9V0z" stroke="#323232" stroke-width="2" fill="#323232"/></marker><marker id="C" markerUnits="userSpaceOnUse" orient="auto" markerWidth="16.236" markerHeight="10.551" viewBox="-1.0 -1.3763819204711736 16.23606797749979 10.550836550532098" refX="-1" refY="3.899"><path d="M12 3.899l-12 3.9V0z" stroke="#323232" stroke-width="2" fill="#323232"/></marker><marker id="D" markerUnits="userSpaceOnUse" orient="auto" markerWidth="16.236" markerHeight="10.551" viewBox="-1.0 -1.3763819204711736 16.23606797749979 10.550836550532098" refX="-1" refY="3.899"><path d="M12 3.899l-12 3.9V0z" stroke="#323232" stroke-width="2" fill="#323232"/></marker><marker id="E" markerUnits="userSpaceOnUse" orient="auto" markerWidth="16.236" markerHeight="10.551" viewBox="-1.0 -1.3763819204711736 16.23606797749979 10.550836550532098" refX="-1" refY="3.899"><path d="M12 3.899l-12 3.9V0z" stroke="#323232" stroke-width="2" fill="#323232"/></marker><marker id="F" markerUnits="userSpaceOnUse" orient="auto" markerWidth="16.236" markerHeight="10.551" viewBox="-1.0 -1.3763819204711736 16.23606797749979 10.550836550532098" refX="-1" refY="3.899"><path d="M12 3.899l-12 3.9V0z" stroke="#323232" stroke-width="2" fill="#323232"/></marker><marker id="G" markerUnits="userSpaceOnUse" orient="auto" markerWidth="16.236" markerHeight="10.551" viewBox="-1.0 -1.3763819204711736 16.23606797749979 10.550836550532098" refX="-1" refY="3.899"><path d="M12 3.899l-12 3.9V0z" stroke="#323232" stroke-width="2" fill="#323232"/></marker><marker id="H" markerUnits="userSpaceOnUse" orient="auto" markerWidth="16.236" markerHeight="10.551" viewBox="-1.0 -1.3763819204711736 16.23606797749979 10.550836550532098" refX="-1" refY="3.899"><path d="M12 3.899l-12 3.9V0z" stroke="#323232" stroke-width="2" fill="#323232"/></marker><marker id="I" markerUnits="userSpaceOnUse" orient="auto" markerWidth="16.236" markerHeight="10.551" viewBox="-1.0 -1.3763819204711736 16.23606797749979 10.550836550532098" refX="-1" refY="3.899"><path d="M12 3.899l-12 3.9V0z" stroke="#323232" stroke-width="2" fill="#323232"/></marker><marker id="J" markerUnits="userSpaceOnUse" orient="auto" markerWidth="16.236" markerHeight="10.551" viewBox="-1.0 -1.3763819204711736 16.23606797749979 10.550836550532098" refX="-1" refY="3.899"><path d="M12 3.899l-12 3.9V0z" stroke="#323232" stroke-width="2" fill="#323232"/></marker><marker id="K" markerUnits="userSpaceOnUse" orient="auto" markerWidth="16.236" markerHeight="10.551" viewBox="-1.0 -1.3763819204711736 16.23606797749979 10.550836550532098" refX="-1" refY="3.899"><path d="M12 3.899l-12 3.9V0z" stroke="#323232" stroke-width="2" fill="#323232"/></marker><marker id="L" markerUnits="userSpaceOnUse" orient="auto" markerWidth="16.236" markerHeight="10.551" viewBox="-1.0 -1.3763819204711736 16.23606797749979 10.550836550532098" refX="-1" refY="3.899"><path d="M12 3.899l-12 3.9V0z" stroke="#323232" stroke-width="2" fill="#323232"/></marker><marker id="M" markerUnits="userSpaceOnUse" orient="auto" markerWidth="16.236" markerHeight="10.551" viewBox="-1.0 -1.3763819204711736 16.23606797749979 10.550836550532098" refX="-1" refY="3.899"><path d="M12 3.899l-12 3.9V0z" stroke="#323232" stroke-width="2" fill="#323232"/></marker><marker id="N" markerUnits="userSpaceOnUse" orient="auto" markerWidth="16.236" markerHeight="10.551" viewBox="-1.0 -1.3763819204711736 16.23606797749979 10.550836550532098" refX="-1" refY="3.899"><path d="M12 3.899l-12 3.9V0z" stroke="#323232" stroke-width="2" fill="#323232"/></marker><marker id="O" markerUnits="userSpaceOnUse" orient="auto" markerWidth="16.236" markerHeight="10.551" viewBox="-1.0 -1.3763819204711736 16.23606797749979 10.550836550532098" refX="-1" refY="3.899"><path d="M12 3.899l-12 3.9V0z" stroke="#323232" stroke-width="2" fill="#323232"/></marker><marker id="P" markerUnits="userSpaceOnUse" orient="auto" markerWidth="16.236" markerHeight="10.551" viewBox="-1.0 -1.3763819204711736 16.23606797749979 10.550836550532098" refX="-1" refY="3.899"><path d="M12 3.899l-12 3.9V0z" stroke="#323232" stroke-width="2" fill="#323232"/></marker><marker id="Q" markerUnits="userSpaceOnUse" orient="auto" markerWidth="16.236" markerHeight="10.551" viewBox="-1.0 -1.3763819204711736 16.23606797749979 10.550836550532098" refX="-1" refY="3.899"><path d="M12 3.899l-12 3.9V0z" stroke="#323232" stroke-width="2" fill="#323232"/></marker></defs><path d="M90 81h824v638H90V81z" fill="#fff"/><path d="M110 253q0-4 4-4h402q4 0 4 4v120q0 4-4 4H114q-4 0-4-4z" stroke="#323232" stroke-width="2" fill="#fff"/><text text-decoration="blink" font-family="微软雅黑" font-size="13" y="29.575" transform="translate(120 249)">硬件设备</text><path d="M137 298.5q0-4 4-4h87q4 0 4 4v53q0 4-4 4h-87q-4 0-4-4z" stroke="#323232" stroke-width="2" fill="#b8b8b8"/><text font-weight="bold" text-decoration="blink" font-family="微软雅黑" text-anchor="middle" font-size="20" x="37.5" y="20.5" transform="translate(147 312.5)">MCU</text><path d="M232 325H277.764" stroke="#323232" stroke-width="2" fill="none" marker-end="url(#a)"/><path d="M293 325l25.5-23.5L344 325l-25.5 23.5z" stroke="#323232" stroke-width="2" fill="#f99"/><text font-weight="bold" text-decoration="blink" font-family="微软雅黑" text-anchor="middle" font-size="18" x="15.5" y="18.45" transform="translate(303 313.985)">D</text><path d="M293 325H247.236" stroke="#323232" stroke-width="2" fill="none" marker-end="url(#b)"/><path d="M561 325l26.5-23.5L614 325l-26.5 23.5z" stroke="#323232" stroke-width="2" fill="#f99"/><text font-weight="bold" text-decoration="blink" font-family="微软雅黑" text-anchor="middle" font-size="18" x="16.5" y="18.45" transform="translate(571 313.985)">T</text><path d="M381.5 277H506v84H381.5z" stroke="#323232" stroke-width="2" fill="#66b2ff"/><text text-decoration="blink" font-family="微软雅黑" text-anchor="middle" font-size="15" x="52.25" y="15.375" transform="translate(391.5 277)">WiFi 模块</text><path d="M412.75 309.75q0-4 4-4h56q4 0 4 4v30.5q0 4-4 4h-56q-4 0-4-4z" stroke="#323232" stroke-width="2" fill="#ff9"/><g font-weight="bold" font-family="微软雅黑" text-anchor="middle" font-size="14"><text text-decoration="blink" x="22" y="14.35" transform="translate(422.75 307.5)">WiFi</text><text text-decoration="blink" x="22" y="31.85" transform="translate(422.75 307.5)">SDK</text></g><path d="M344 325H397.514" stroke="#323232" stroke-width="2" fill="none" marker-end="url(#c)"/><path d="M412.75 325H359.236" stroke="#323232" stroke-width="2" fill="none" marker-end="url(#d)"/><path d="M561 325h-69.014" stroke="#323232" stroke-width="2" fill="none" marker-end="url(#e)"/><path d="M476.75 325h69.014" stroke="#323232" stroke-width="2" fill="none" marker-end="url(#f)"/><path d="M626.875 462H854.75v237H626.875z" stroke="#323232" stroke-width="2" fill="#fc9"/><text text-decoration="blink" font-family="微软雅黑" font-size="17" y="17.425" transform="translate(636.875 462)">App</text><path d="M110 433q0-4 4-4h406q4 0 4 4v125q0 4-4 4H114q-4 0-4-4z" stroke="#323232" stroke-width="2" fill="#fff"/><text text-decoration="blink" font-family="微软雅黑" font-size="13" y="29.575" transform="translate(120 429)">硬件设备</text><path d="M141 483.5q0-4 4-4h87q4 0 4 4v53q0 4-4 4h-87q-4 0-4-4z" stroke="#323232" stroke-width="2" fill="#b8b8b8"/><text font-weight="bold" text-decoration="blink" font-family="微软雅黑" text-anchor="middle" font-size="20" x="37.5" y="20.5" transform="translate(151 497.5)">MCU</text><path d="M236 510H278.264" stroke="#323232" stroke-width="2" fill="none" marker-end="url(#g)"/><path d="M293.5 510l25.5-23.5 25.5 23.5-25.5 23.5z" stroke="#323232" stroke-width="2" fill="#f99"/><text font-weight="bold" text-decoration="blink" font-family="微软雅黑" text-anchor="middle" font-size="18" x="15.5" y="18.45" transform="translate(303.5 498.985)">D</text><path d="M293.5 510H251.236" stroke="#323232" stroke-width="2" fill="none" marker-end="url(#h)"/><path d="M385.5 462H510v84H385.5z" stroke="#323232" stroke-width="2" fill="#66b2ff"/><text text-decoration="blink" font-family="微软雅黑" text-anchor="middle" font-size="15" x="52.25" y="15.375" transform="translate(395.5 462)">蓝牙 模块</text><path d="M415.25 494.75q0-4 4-4h57q4 0 4 4v30.5q0 4-4 4h-57q-4 0-4-4z" stroke="#323232" stroke-width="2" fill="#ff9"/><g font-weight="bold" font-family="微软雅黑" text-anchor="middle" font-size="15"><text text-decoration="blink" x="22.5" y="15.375" transform="translate(425.25 491.25)">BLE</text><text text-decoration="blink" x="22.5" y="34.125" transform="translate(425.25 491.25)">SDK</text></g><path d="M344.5 510H400.014" stroke="#323232" stroke-width="2" fill="none" marker-end="url(#i)"/><path d="M415.25 510H359.736" stroke="#323232" stroke-width="2" fill="none" marker-end="url(#j)"/><path d="M110 105q0-4 4-4h402q4 0 4 4v118q0 4-4 4H114q-4 0-4-4z" stroke="#323232" stroke-width="2" fill="#fff"/><text text-decoration="blink" font-family="微软雅黑" font-size="13" y="29.575" transform="translate(120 101)">硬件设备</text><path d="M134 148.5q0-4 4-4h87q4 0 4 4v53q0 4-4 4h-87q-4 0-4-4z" stroke="#323232" stroke-width="2" fill="#b8b8b8"/><text font-weight="bold" text-decoration="blink" font-family="微软雅黑" text-anchor="middle" font-size="20" x="37.5" y="20.5" transform="translate(144 162.5)">MCU</text><path d="M229 175H274.764" stroke="#323232" stroke-width="2" fill="none" marker-end="url(#k)"/><path d="M290 175l25.5-23.5L341 175l-25.5 23.5z" stroke="#323232" stroke-width="2" fill="#f99"/><text font-weight="bold" text-decoration="blink" font-family="微软雅黑" text-anchor="middle" font-size="18" x="15.5" y="18.45" transform="translate(300 163.985)">D</text><path d="M290 175H244.236" stroke="#323232" stroke-width="2" fill="none" marker-end="url(#l)"/><path d="M378.5 127H503v84H378.5z" stroke="#323232" stroke-width="2" fill="#66b2ff"/><text text-decoration="blink" font-family="微软雅黑" text-anchor="middle" font-size="15" x="52.25" y="15.375" transform="translate(388.5 127)">GPRS 模块</text><path d="M404.75 159.75q0-4 4-4h64q4 0 4 4v30.5q0 4-4 4h-64q-4 0-4-4z" stroke="#323232" stroke-width="2" fill="#ff9"/><g font-weight="bold" font-family="微软雅黑" text-anchor="middle" font-size="14"><text text-decoration="blink" x="26" y="14.35" transform="translate(414.75 157.5)">GPRS</text><text text-decoration="blink" x="26" y="31.85" transform="translate(414.75 157.5)">SDK</text></g><path d="M341 175H389.514" stroke="#323232" stroke-width="2" fill="none" marker-end="url(#m)"/><path d="M404.75 175H356.236" stroke="#323232" stroke-width="2" fill="none" marker-end="url(#n)"/><path d="M476.75 175h173.764" stroke="#323232" stroke-width="2" fill="none" marker-end="url(#o)"/><path d="M665.75 175l26.125-23.5L718 175l-26.125 23.5z" stroke="#323232" stroke-width="2" fill="#f99"/><text font-weight="bold" text-decoration="blink" font-family="微软雅黑" text-anchor="middle" font-size="18" x="16.125" y="18.45" transform="translate(675.75 163.985)">T</text><path d="M665.75 175H491.986" stroke="#323232" stroke-width="2" fill="none" marker-end="url(#p)"/><path d="M597 403.5l25.5-23.031L648 403.5l-25.5 23.031z" stroke="#323232" stroke-width="2" fill="#f99"/><text font-weight="bold" text-decoration="blink" font-family="微软雅黑" text-anchor="middle" font-size="18" x="15.5" y="18.45" transform="translate(607 392.48)">L</text><path d="M648 403.5h56.375v70.139" stroke="#323232" stroke-width="2" fill="none" marker-end="url(#q)"/><path d="M597 403.5h-60.125V325h-44.889" stroke="#323232" stroke-width="2" fill="none" marker-end="url(#r)"/><path d="M476.75 325h60.125v78.5h44.889" stroke="#323232" stroke-width="2" fill="none" marker-end="url(#s)"/><path d="M704.375 488.875V403.5h-41.139" stroke="#323232" stroke-width="2" fill="none" marker-end="url(#t)"/><path d="M667.75 492.875q0-4 4-4H737q4 0 4 4v34.25q0 4-4 4h-65.25q-4 0-4-4z" stroke="#323232" stroke-width="2" fill="#ff9"/><g font-weight="bold" font-family="微软雅黑" text-anchor="middle" font-size="16"><text text-decoration="blink" x="26.625" y="16.4" transform="translate(677.75 490)">Core</text><text text-decoration="blink" x="26.625" y="36.4" transform="translate(677.75 490)">SDK</text></g><path d="M686.42 341.8c-25.52-16.8-9.28-29.4-3.48-33.6-2.32-21 26.68-25.2 38.28-16.8 9.28-12.6 38.28-8.4 38.28 4.2 23.2-4.2 32.48 12.6 23.2 33.6 8.12 16.8 0 37.8-26.68 29.4-5.8 10.92-29 10.92-34.8 0-11.6 8.4-34.8 4.2-34.8-16.8z" stroke="#323232" stroke-width="2" fill="#fff"/><g font-weight="bold" font-family="微软雅黑" text-anchor="middle" font-size="18"><text text-decoration="blink" x="48" y="18.45" transform="translate(682.5 302.5)">Cloud</text><text text-decoration="blink" x="48" y="40.95" transform="translate(682.5 302.5)">云平台</text></g><path d="M691.875 198.5v46.03h.345v30.794" stroke="#323232" stroke-width="2" fill="none" marker-end="url(#u)"/><path d="M614 325H657.264" stroke="#323232" stroke-width="2" fill="none" marker-end="url(#v)"/><path d="M672.5 325H629.236" stroke="#323232" stroke-width="2" fill="none" marker-end="url(#w)"/><path d="M692.22 290.56v-46.03h-.345v-30.794" stroke="#323232" stroke-width="2" fill="none" marker-end="url(#x)"/><path d="M845.75 417.5l24.125-22.5L894 417.5 869.875 440z" stroke="#323232" stroke-width="2" fill="#f99"/><text font-weight="bold" text-decoration="blink" font-family="微软雅黑" text-anchor="middle" font-size="18" x="14.125" y="18.45" transform="translate(855.75 406.475)">S</text><path d="M741 510h128.875v-54.764" stroke="#323232" stroke-width="2" fill="none" marker-end="url(#y)"/><path d="M869.875 395v-44.8h-70.547" stroke="#323232" stroke-width="2" fill="none" marker-end="url(#z)"/><path d="M784.092 350.2h85.783v29.564" stroke="#323232" stroke-width="2" fill="none" marker-end="url(#A)"/><path d="M667.75 584.906q0-4 4-4H737q4 0 4 4v34q0 4-4 4h-65.25q-4 0-4-4z" stroke="#323232" stroke-width="2" fill="#ff9"/><g font-weight="bold" font-family="微软雅黑" text-anchor="middle" font-size="16"><text text-decoration="blink" x="26.625" y="16.4" transform="translate(677.75 581.906)">IOT</text><text text-decoration="blink" x="26.625" y="36.4" transform="translate(677.75 581.906)">SDK</text></g><path d="M555 510l25.5-23.031L606 510l-25.5 23.031z" stroke="#323232" stroke-width="2" fill="#f99"/><text font-weight="bold" text-decoration="blink" font-family="微软雅黑" text-anchor="middle" font-size="18" x="15.5" y="18.45" transform="translate(565 498.98)">B</text><g><path d="M480.25 510H539.764" stroke="#323232" stroke-width="2" fill="none" marker-end="url(#B)"/></g><g><path d="M606 510H652.514" stroke="#323232" stroke-width="2" fill="none" marker-end="url(#C)"/></g><g><path d="M704.375 531.125v34.545" stroke="#323232" stroke-width="2" fill="none" marker-end="url(#D)"/></g><g><path d="M311.5 578.031l-18 12.097v96.775l18 12.097m199.5 0l18-12.097v-96.775l-18-12.097" stroke="#323232" stroke-width="2" fill="none"/><path d="M293.5 578.031H529V699H293.5z" fill="none"/><text text-decoration="blink" font-family="微软雅黑" text-anchor="middle" font-size="13" x="107.75" y="13.325" transform="translate(303.5 578.031)">Haier物联系统</text></g><g><path d="M503 625.016h82.375v-23.11h67.139" stroke="#323232" stroke-width="2" fill="none" marker-end="url(#E)"/></g><g><path d="M429.75 607.89q0-4 4-4H499q4 0 4 4v34.25q0 4-4 4h-65.25q-4 0-4-4z" stroke="#323232" stroke-width="2" fill="#ff9"/><g font-weight="bold" font-family="微软雅黑" text-anchor="middle" font-size="16"><text text-decoration="blink" x="26.625" y="16.4" transform="translate(439.75 605.016)">Core</text><text text-decoration="blink" x="26.625" y="36.4" transform="translate(439.75 605.016)">SDK</text></g></g><g><path d="M754 550q0-4 4-4h81q4 0 4 4v34.969q0 4-4 4h-81q-4 0-4-4z" stroke="#323232" stroke-width="2" fill="#ff9"/><g font-weight="bold" font-family="微软雅黑" text-anchor="middle" font-size="16"><text text-decoration="blink" x="34.5" y="16.4" transform="translate(764 547.484)">BigData</text><text text-decoration="blink" x="34.5" y="36.4" transform="translate(764 547.484)">SDK</text></g></g><g><path d="M798.5 546V417.5h32.014" stroke="#323232" stroke-width="2" fill="none" marker-end="url(#F)"/></g><g><path d="M648 628h183.875v60H648z" stroke="#323232" stroke-width="2" fill="#fff"/><text font-weight="bold" text-decoration="blink" font-family="微软雅黑" font-size="15" y="34.125" transform="translate(658 628)">WebView</text></g><g><path d="M745 641q0-4 4-4h68.25q4 0 4 4v34q0 4-4 4H749q-4 0-4-4z" stroke="#323232" stroke-width="2" fill="#ff9"/><g font-weight="bold" font-family="微软雅黑" text-anchor="middle" font-size="16"><text text-decoration="blink" x="28.125" y="16.4" transform="translate(755 638)">Hybrid</text><text text-decoration="blink" x="28.125" y="36.4" transform="translate(755 638)">SDK</text></g></g><g><path d="M741 601.906h42.125v19.858" stroke="#323232" stroke-width="2" fill="none" marker-end="url(#G)"/></g><g><path d="M783.125 637v-35.094h-26.889" stroke="#323232" stroke-width="2" fill="none" marker-end="url(#H)"/></g><g><path d="M704.375 580.906v-34.545" stroke="#323232" stroke-width="2" fill="none" marker-end="url(#I)"/></g><g><path d="M667.75 601.906h-82.375v23.11h-67.139" stroke="#323232" stroke-width="2" fill="none" marker-end="url(#J)"/></g><g><path d="M308.25 607.89q0-4 4-4h65.25q4 0 4 4v34.25q0 4-4 4h-65.25q-4 0-4-4z" stroke="#323232" stroke-width="2" fill="#e5e5e5"/><text font-weight="bold" text-decoration="blink" font-family="微软雅黑" text-anchor="middle" font-size="16" x="26.625" y="16.4" transform="translate(318.25 615.016)">uSDK</text></g><g><path d="M381.5 625.016H414.514" stroke="#323232" stroke-width="2" fill="none" marker-end="url(#K)"/></g><g><path d="M429.75 625.016H396.736" stroke="#323232" stroke-width="2" fill="none" marker-end="url(#L)"/></g><g><path d="M356.5 660.75q0-4 4-4h65.25q4 0 4 4V695q0 4-4 4H360.5q-4 0-4-4z" stroke="#323232" stroke-width="2" fill="#e5e5e5"/><g font-weight="bold" font-family="微软雅黑" text-anchor="middle" font-size="16"><text text-decoration="blink" x="26.625" y="16.4" transform="translate(366.5 657.875)">open</text><text text-decoration="blink" x="26.625" y="36.4" transform="translate(366.5 657.875)">API</text></g></g><g><path d="M429.75 677.875h36.625v-16.498" stroke="#323232" stroke-width="2" fill="none" marker-end="url(#M)"/></g><g><path d="M466.375 646.14v31.735h-21.389" stroke="#323232" stroke-width="2" fill="none" marker-end="url(#N)"/></g><g><path d="M869.875 440v70H756.236" stroke="#323232" stroke-width="2" fill="none" marker-end="url(#O)"/></g><g><path d="M667.75 510H621.236" stroke="#323232" stroke-width="2" fill="none" marker-end="url(#P)"/></g><g><path d="M555 510H495.486" stroke="#323232" stroke-width="2" fill="none" marker-end="url(#Q)"/></g></svg>