<svg xmlns="http://www.w3.org/2000/svg" viewBox="239.5 111.5 841.5 476.5" width="841.5" height="476.5"><defs><marker id="a" markerUnits="userSpaceOnUse" orient="auto" markerWidth="16.236" markerHeight="10.551" viewBox="-1.0 -1.3763819204711736 16.23606797749979 10.550836550532098" refX="-1" refY="3.899"><path d="M12 3.899l-12 3.9V0z" stroke="#323232" stroke-width="2" fill="#323232"/></marker><marker id="b" markerUnits="userSpaceOnUse" orient="auto" markerWidth="16.236" markerHeight="10.551" viewBox="-1.0 -1.3763819204711736 16.23606797749979 10.550836550532098" refX="-1" refY="3.899"><path d="M12 3.899l-12 3.9V0z" stroke="#323232" stroke-width="2" fill="#323232"/></marker><marker id="c" markerUnits="userSpaceOnUse" orient="auto" markerWidth="16.236" markerHeight="10.551" viewBox="-1.0 -1.3763819204711736 16.23606797749979 10.550836550532098" refX="-1" refY="3.899"><path d="M12 3.899l-12 3.9V0z" stroke="#323232" stroke-width="2" fill="#323232"/></marker><marker id="d" markerUnits="userSpaceOnUse" orient="auto" markerWidth="16.236" markerHeight="10.551" viewBox="-1.0 -1.3763819204711736 16.23606797749979 10.550836550532098" refX="-1" refY="3.899"><path d="M12 3.899l-12 3.9V0z" stroke="#323232" stroke-width="2" fill="#323232"/></marker><marker id="e" markerUnits="userSpaceOnUse" orient="auto" markerWidth="16.236" markerHeight="10.551" viewBox="-1.0 -1.3763819204711736 16.23606797749979 10.550836550532098" refX="-1" refY="3.899"><path d="M12 3.899l-12 3.9V0z" stroke="#323232" stroke-width="2" fill="#323232"/></marker><marker id="f" markerUnits="userSpaceOnUse" orient="auto" markerWidth="16.236" markerHeight="10.551" viewBox="-1.0 -1.3763819204711736 16.23606797749979 10.550836550532098" refX="-1" refY="3.899"><path d="M12 3.899l-12 3.9V0z" stroke="#323232" stroke-width="2" fill="#323232"/></marker><marker id="g" markerUnits="userSpaceOnUse" orient="auto" markerWidth="16.236" markerHeight="10.551" viewBox="-1.0 -1.3763819204711736 16.23606797749979 10.550836550532098" refX="-1" refY="3.899"><path d="M12 3.899l-12 3.9V0z" stroke="#323232" stroke-width="2" fill="#323232"/></marker><marker id="h" markerUnits="userSpaceOnUse" orient="auto" markerWidth="16.236" markerHeight="10.551" viewBox="-1.0 -1.3763819204711736 16.23606797749979 10.550836550532098" refX="-1" refY="3.899"><path d="M12 3.899l-12 3.9V0z" stroke="#323232" stroke-width="2" fill="#323232"/></marker><marker id="i" markerUnits="userSpaceOnUse" orient="auto" markerWidth="16.236" markerHeight="10.551" viewBox="-1.0 -1.3763819204711736 16.23606797749979 10.550836550532098" refX="-1" refY="3.899"><path d="M12 3.899l-12 3.9V0z" stroke="#323232" stroke-width="2" fill="#323232"/></marker><marker id="j" markerUnits="userSpaceOnUse" orient="auto" markerWidth="16.236" markerHeight="10.551" viewBox="-1.0 -1.3763819204711736 16.23606797749979 10.550836550532098" refX="-1" refY="3.899"><path d="M12 3.899l-12 3.9V0z" stroke="#323232" stroke-width="2" fill="#323232"/></marker><marker id="k" markerUnits="userSpaceOnUse" orient="auto" markerWidth="16.236" markerHeight="10.551" viewBox="-1.0 -1.3763819204711736 16.23606797749979 10.550836550532098" refX="-1" refY="3.899"><path d="M12 3.899l-12 3.9V0z" stroke="#323232" stroke-width="2" fill="#323232"/></marker><marker id="l" markerUnits="userSpaceOnUse" orient="auto" markerWidth="16.236" markerHeight="10.551" viewBox="-1.0 -1.3763819204711736 16.23606797749979 10.550836550532098" refX="-1" refY="3.899"><path d="M12 3.899l-12 3.9V0z" stroke="#323232" stroke-width="2" fill="#323232"/></marker><marker id="m" markerUnits="userSpaceOnUse" orient="auto" markerWidth="16.236" markerHeight="10.551" viewBox="-1.0 -1.3763819204711736 16.23606797749979 10.550836550532098" refX="-1" refY="3.899"><path d="M12 3.899l-12 3.9V0z" stroke="#323232" stroke-width="2" fill="#323232"/></marker><marker id="n" markerUnits="userSpaceOnUse" orient="auto" markerWidth="16.236" markerHeight="10.551" viewBox="-1.0 -1.3763819204711736 16.23606797749979 10.550836550532098" refX="-1" refY="3.899"><path d="M12 3.899l-12 3.9V0z" stroke="#323232" stroke-width="2" fill="#323232"/></marker><marker id="o" markerUnits="userSpaceOnUse" orient="auto" markerWidth="16.236" markerHeight="10.551" viewBox="-1.0 -1.3763819204711736 16.23606797749979 10.550836550532098" refX="-1" refY="3.899"><path d="M12 3.899l-12 3.9V0z" stroke="#323232" stroke-width="2" fill="#323232"/></marker><marker id="p" markerUnits="userSpaceOnUse" orient="auto" markerWidth="16.236" markerHeight="10.551" viewBox="-1.0 -1.3763819204711736 16.23606797749979 10.550836550532098" refX="-1" refY="3.899"><path d="M12 3.899l-12 3.9V0z" stroke="#323232" stroke-width="2" fill="#323232"/></marker><marker id="q" markerUnits="userSpaceOnUse" orient="auto" markerWidth="16.236" markerHeight="10.551" viewBox="-1.0 -1.3763819204711736 16.23606797749979 10.550836550532098" refX="-1" refY="3.899"><path d="M12 3.899l-12 3.9V0z" stroke="#323232" stroke-width="2" fill="#323232"/></marker><marker id="r" markerUnits="userSpaceOnUse" orient="auto" markerWidth="16.236" markerHeight="10.551" viewBox="-1.0 -1.3763819204711736 16.23606797749979 10.550836550532098" refX="-1" refY="3.899"><path d="M12 3.899l-12 3.9V0z" stroke="#323232" stroke-width="2" fill="#323232"/></marker></defs><path d="M239.5 111.5H1081V588H239.5V111.5z" fill="#fff"/><path d="M404.25 378q0-4 4-4h109q4 0 4 4v43q0 4-4 4h-109q-4 0-4-4z" stroke="#323232" stroke-width="2" fill="#ffb366"/><text fill="#323232" text-decoration="blink" font-family="Arial,宋体" text-anchor="middle" font-size="13" x="48.5" y="13.325" transform="translate(414.25 391.375)">B-Protocol</text><path d="M543 378q0-4 4-4h107q4 0 4 4v43q0 4-4 4H547q-4 0-4-4z" stroke="#323232" stroke-width="2" fill="#ffb366"/><text fill="#323232" text-decoration="blink" font-family="Arial,宋体" text-anchor="middle" font-size="13" x="47.5" y="13.325" transform="translate(553 391.375)">S-Protocol</text><path d="M645.438 135.5q0-4 4-4h169.375q4 0 4 4V174q0 4-4 4H649.438q-4 0-4-4z" stroke="#323232" stroke-width="2" fill="#e6ffcc"/><text text-decoration="blink" font-family="Arial,宋体" text-anchor="middle" font-size="13" x="78.688" y="13.325" transform="translate(655.438 146.625)">IOTSDK</text><path d="M264 378q0-4 4-4h102q4 0 4 4v43q0 4-4 4H268q-4 0-4-4z" stroke="#323232" stroke-width="2" fill="#ffb366"/><text fill="#323232" text-decoration="blink" font-family="Arial,宋体" text-anchor="middle" font-size="13" x="45" y="13.325" transform="translate(274 391.375)">Smartlink</text><path d="M289.5 477q0-4 4-4h99q4 0 4 4v30q0 4-4 4h-99q-4 0-4-4z" stroke="#323232" stroke-width="2" fill="#ff9"/><text fill="#323232" text-decoration="blink" font-family="Arial,宋体" text-anchor="middle" font-size="13" x="43.5" y="13.325" transform="translate(299.5 483.875)">HF_Smartlink</text><path d="M376 282q0-4 4-4h165.5q4 0 4 4v37q0 4-4 4H380q-4 0-4-4z" stroke="#323232" stroke-width="2" fill="#f9c"/><text fill="#323232" text-decoration="blink" font-family="Arial,宋体" text-anchor="middle" font-size="13" x="76.75" y="13.325" transform="translate(386 292.375)">CoreSDK-Djlink</text><path d="M683 378q0-4 4-4h107q4 0 4 4v43q0 4-4 4H687q-4 0-4-4z" stroke="#323232" stroke-width="2" fill="#ffb366"/><text fill="#323232" text-decoration="blink" font-family="Arial,宋体" text-anchor="middle" font-size="13" x="47.5" y="13.325" transform="translate(693 391.375)">L-Protocol</text><path d="M568.375 528.25q0-4 4-4h85.25q4 0 4 4V560q0 4-4 4h-85.25q-4 0-4-4z" stroke="#323232" stroke-width="2" fill="#ff9"/><text fill="#323232" text-decoration="blink" font-family="Arial,宋体" text-anchor="middle" font-size="13" x="36.625" y="13.325" transform="translate(578.375 536)">Retrofit</text><path d="M407.5 479.5q0-4 4-4H514q4 0 4 4v28q0 4-4 4H411.5q-4 0-4-4z" stroke="#323232" stroke-width="2" fill="#ff9"/><text fill="#323232" text-decoration="blink" font-family="Arial,宋体" text-anchor="middle" font-size="13" x="45.25" y="13.325" transform="translate(417.5 485.375)">RxAndroidBle</text><path d="M700.75 474q0-4 4-4h71.5q4 0 4 4v33q0 4-4 4h-71.5q-4 0-4-4z" stroke="#323232" stroke-width="2" fill="#ff9"/><text fill="#323232" text-decoration="blink" font-family="Arial,宋体" text-anchor="middle" font-size="13" x="29.75" y="13.325" transform="translate(710.75 482.375)">RxNetty</text><path d="M568.375 475q0-4 4-4h85.25q4 0 4 4v32q0 4-4 4h-85.25q-4 0-4-4z" stroke="#323232" stroke-width="2" fill="#ff9"/><text fill="#323232" text-decoration="blink" font-family="Arial,宋体" text-anchor="middle" font-size="13" x="36.625" y="13.325" transform="translate(578.375 482.875)">RxMqtt</text><path d="M600.5 425v30h-62.125v89.125h14.764" stroke="#323232" stroke-width="2" fill="none" marker-end="url(#a)"/><path d="M600.5 425v30h-62.125v36h14.764" stroke="#323232" stroke-width="2" fill="none" marker-end="url(#b)"/><path d="M740.5 425v29.764" stroke="#323232" stroke-width="2" fill="none" marker-end="url(#c)"/><path d="M462.75 425V460.264" stroke="#323232" stroke-width="2" fill="none" marker-end="url(#d)"/><path d="M289.5 534q0-4 4-4H422q4 0 4 4v30q0 4-4 4H293.5q-4 0-4-4z" stroke="#323232" stroke-width="2" fill="#ff9"/><text fill="#323232" text-decoration="blink" font-family="Arial,宋体" text-anchor="middle" font-size="13" x="58.25" y="13.325" transform="translate(299.5 540.875)">ESP_SmartConfig</text><path d="M319 425v30h-59.5v94h14.764" stroke="#323232" stroke-width="2" fill="none" marker-end="url(#e)"/><path d="M319 425v30h-59.5v37h14.764" stroke="#323232" stroke-width="2" fill="none" marker-end="url(#f)"/><path d="M462.75 323v25.5H600.5v10.264" stroke="#323232" stroke-width="2" fill="none" marker-end="url(#g)"/><path d="M462.75 323v25.5H740.5v10.264" stroke="#323232" stroke-width="2" fill="none" marker-end="url(#h)"/><path d="M462.75 323V358.764" stroke="#323232" stroke-width="2" fill="none" marker-end="url(#i)"/><path d="M462.75 323v25.5H319v10.264" stroke="#323232" stroke-width="2" fill="none" marker-end="url(#j)"/><path d="M894 282q0-4 4-4h144q4 0 4 4v37q0 4-4 4H898q-4 0-4-4z" stroke="#323232" stroke-width="2" fill="#f9c"/><text fill="#323232" text-decoration="blink" font-family="Arial,宋体" text-anchor="middle" font-size="13" x="66" y="13.325" transform="translate(904 292.375)">CoreSDK-Haier</text><g><path d="M623.5 294q0-4 4-4H703q4 0 4 4v34q0 4-4 4h-75.5q-4 0-4-4z" stroke="#323232" stroke-width="2" fill="#9cf"/><text fill="#323232" text-decoration="blink" font-family="Arial,宋体" text-anchor="middle" font-size="13" x="31.75" y="13.325" transform="translate(633.5 302.875)">RxJava</text></g><g><path d="M640 209.5q0-4 4-4h168.25q4 0 4 4v36q0 4-4 4H644q-4 0-4-4z" stroke="#323232" stroke-width="2" fill="#99f"/><text fill="#323232" text-decoration="blink" font-family="Arial,宋体" text-anchor="middle" font-size="13" x="78.125" y="13.325" transform="translate(650 219.375)">CoreSDK-Common</text></g><g><path d="M813.875 378q0-4 4-4h107q4 0 4 4v43q0 4-4 4h-107q-4 0-4-4z" stroke="#323232" stroke-width="2" fill="#ffb366"/><text fill="#323232" text-decoration="blink" font-family="Arial,宋体" text-anchor="middle" font-size="13" x="47.5" y="13.325" transform="translate(823.875 391.375)">uSDK</text></g><g><path d="M970 323v25.5h-98.625v10.264" stroke="#323232" stroke-width="2" fill="none" marker-end="url(#k)"/></g><g><path d="M946 378q0-4 4-4h107q4 0 4 4v43q0 4-4 4H950q-4 0-4-4z" stroke="#323232" stroke-width="2" fill="#ffb366"/><text fill="#323232" text-decoration="blink" font-family="Arial,宋体" text-anchor="middle" font-size="13" x="47.5" y="13.325" transform="translate(956 391.375)">OpenAPI</text></g><g><path d="M970 323v25.5h33.5v10.264" stroke="#323232" stroke-width="2" fill="none" marker-end="url(#l)"/></g><g><path d="M894 300.5h-38.875v-73h-23.639" stroke="#323232" stroke-width="2" fill="none" marker-end="url(#m)"/></g><g><path d="M549.5 300.5h45.25v-73h30.014" stroke="#323232" stroke-width="2" fill="none" marker-end="url(#n)"/></g><g><path d="M728.125 249.5v20.25H665.25v5.014" stroke="#323232" stroke-width="2" fill="none" marker-end="url(#o)"/></g><g><path d="M745.375 294q0-4 4-4h75.5q4 0 4 4v34q0 4-4 4h-75.5q-4 0-4-4z" stroke="#323232" stroke-width="2" fill="#9cf"/><text fill="#323232" text-decoration="blink" font-family="Arial,宋体" text-anchor="middle" font-size="13" x="31.75" y="13.325" transform="translate(755.375 302.875)">Eventbus</text></g><g><path d="M728.125 249.5v20.25h59v5.014" stroke="#323232" stroke-width="2" fill="none" marker-end="url(#p)"/></g><g><path d="M645.438 154.75H462.75v108.014" stroke="#323232" stroke-width="2" stroke-dasharray="10.0 4.0" fill="none" marker-end="url(#q)"/></g><g><path d="M822.813 154.75H970v108.014" stroke="#323232" stroke-width="2" stroke-dasharray="10.0 4.0" fill="none" marker-end="url(#r)"/></g></svg>